<svg width="271" height="310" viewBox="0 0 271 310" fill="none" xmlns="http://www.w3.org/2000/svg">
<path d="M19.3 0H183.5L270.5 86.7V289.9C270.5 300.6 261.8 309.2 251.2 309.2H19.2C8.6 309.2 0 300.6 0 289.9V19.3C0 8.7 8.7 0 19.3 0Z" fill="#908F8F"/>
<path d="M270.3 87.0002H203C192.3 87.0002 183.7 78.3002 183.7 67.7002V0.200195L270.3 87.0002Z" fill="#494949"/>
<path d="M51.001 185.518C51.001 190.651 53.35 193 58.483 193H71.794C80.146 193 85.801 191.434 90.325 187.693C96.763 182.473 100.243 174.208 100.243 164.029C100.243 145.846 89.542 135.058 71.446 135.058H58.483C53.263 135.058 51.001 137.32 51.001 142.54V185.518ZM64.66 180.298V147.76H69.88C80.929 147.76 86.149 152.98 86.149 164.203C86.149 170.902 83.713 175.948 79.276 178.471C77.188 179.689 73.969 180.298 69.358 180.298H64.66Z" fill="white"/>
<path d="M137.443 133.492C120.043 133.492 109.168 145.411 109.168 164.551C109.168 182.647 120.391 194.566 137.443 194.566C154.756 194.566 165.718 182.647 165.718 164.029C165.718 145.411 154.669 133.492 137.443 133.492ZM137.53 145.585C146.056 145.585 151.276 152.632 151.276 164.029C151.276 175.426 146.056 182.386 137.53 182.386C128.83 182.386 123.61 175.426 123.61 163.855C123.61 152.545 128.917 145.585 137.53 145.585Z" fill="white"/>
<path d="M204.072 133.318C186.237 133.318 174.666 145.324 174.666 163.768C174.666 182.212 186.15 194.74 203.115 194.74C209.031 194.74 215.121 193 218.427 190.216C220.341 188.737 221.124 187.171 221.124 184.996C221.124 181.342 218.601 178.297 215.643 178.297C214.512 178.297 214.077 178.384 210.684 179.776C208.074 180.733 205.464 181.255 203.028 181.255C194.763 181.255 189.195 174.382 189.195 164.203C189.195 153.85 194.763 146.629 202.68 146.629C204.942 146.629 208.161 147.238 211.293 148.369C212.772 148.804 214.251 149.152 215.208 149.152C217.992 149.152 220.602 145.846 220.602 142.192C220.602 136.972 213.816 133.318 204.072 133.318Z" fill="white"/>
<path fill-rule="evenodd" clip-rule="evenodd" d="M89.9426 187.231L89.9471 187.227C96.2136 182.146 99.643 174.072 99.643 164.029C99.643 155.055 97.0044 147.979 92.2048 143.148C87.4058 138.317 80.3745 135.658 71.446 135.658H58.483C55.9439 135.658 54.2643 136.211 53.2087 137.266C52.1532 138.322 51.601 140.001 51.601 142.54V185.518C51.601 188.006 52.1712 189.69 53.2414 190.76C54.3116 191.83 55.9956 192.4 58.483 192.4H71.794C80.0702 192.4 85.5668 190.849 89.9426 187.231ZM64.06 180.898V147.16H69.88C75.4884 147.16 79.7409 148.485 82.5838 151.351C85.4258 154.216 86.749 158.51 86.749 164.203C86.749 171.04 84.2564 176.328 79.5754 178.991C77.3465 180.29 73.9964 180.898 69.358 180.898H64.06ZM79.276 178.471C83.713 175.948 86.149 170.902 86.149 164.203C86.149 152.98 80.929 147.76 69.88 147.76H64.66V180.298H69.358C73.969 180.298 77.188 179.689 79.276 178.471ZM117.224 142.248C112.454 147.485 109.768 155.092 109.768 164.551C109.768 173.475 112.534 180.822 117.348 185.933C122.159 191.041 129.063 193.966 137.443 193.966C145.956 193.966 152.856 191.04 157.632 185.872C162.413 180.699 165.118 173.222 165.118 164.029C165.118 154.838 162.392 147.36 157.6 142.187C152.813 137.018 145.911 134.092 137.443 134.092C128.886 134.092 121.988 137.019 117.224 142.248ZM148.082 150.175C150.553 153.497 151.876 158.248 151.876 164.029C151.876 169.81 150.553 174.541 148.08 177.841C145.593 181.162 141.976 182.986 137.53 182.986C133.001 182.986 129.339 181.165 126.828 177.82C124.332 174.496 123.01 169.721 123.01 163.855C123.01 158.115 124.356 153.405 126.863 150.115C129.384 146.807 133.043 144.985 137.53 144.985C141.979 144.985 145.595 146.834 148.082 150.175ZM218.05 189.749L218.06 189.742C218.967 189.041 219.575 188.344 219.959 187.594C220.343 186.846 220.524 186.009 220.524 184.996C220.524 181.558 218.165 178.897 215.643 178.897C215.114 178.897 214.782 178.916 214.179 179.091C213.541 179.276 212.615 179.633 210.912 180.331L210.901 180.336L210.891 180.34C208.228 181.316 205.547 181.855 203.028 181.855C198.714 181.855 195.085 180.055 192.546 176.924C190.016 173.804 188.595 169.398 188.595 164.203C188.595 158.924 190.014 154.394 192.493 151.168C194.979 147.933 198.521 146.029 202.68 146.029C205.025 146.029 208.306 146.655 211.48 147.799C212.957 148.233 214.352 148.552 215.208 148.552C216.358 148.552 217.549 147.863 218.476 146.674C219.397 145.492 220.002 143.881 220.002 142.192C220.002 139.883 218.509 137.832 215.707 136.326C212.906 134.821 208.879 133.918 204.072 133.918C195.293 133.918 188.106 136.87 183.113 142.044C178.117 147.219 175.266 154.673 175.266 163.768C175.266 172.866 178.097 180.456 182.971 185.765C187.84 191.07 194.788 194.14 203.115 194.14C208.95 194.14 214.881 192.418 218.041 189.757L218.05 189.749ZM211.293 148.369C208.161 147.238 204.942 146.629 202.68 146.629C194.763 146.629 189.195 153.85 189.195 164.203C189.195 174.382 194.763 181.255 203.028 181.255C205.464 181.255 208.074 180.733 210.684 179.776C214.077 178.384 214.512 178.297 215.643 178.297C218.601 178.297 221.124 181.342 221.124 184.996C221.124 187.171 220.341 188.737 218.427 190.216C215.121 193 209.031 194.74 203.115 194.74C186.15 194.74 174.666 182.212 174.666 163.768C174.666 145.324 186.237 133.318 204.072 133.318C213.816 133.318 220.602 136.972 220.602 142.192C220.602 145.846 217.992 149.152 215.208 149.152C214.251 149.152 212.772 148.804 211.293 148.369ZM58.483 193C53.35 193 51.001 190.651 51.001 185.518V142.54C51.001 137.32 53.263 135.058 58.483 135.058H71.446C89.542 135.058 100.243 145.846 100.243 164.029C100.243 174.208 96.763 182.473 90.325 187.693C85.801 191.434 80.146 193 71.794 193H58.483ZM109.168 164.551C109.168 145.411 120.043 133.492 137.443 133.492C154.669 133.492 165.718 145.411 165.718 164.029C165.718 182.647 154.756 194.566 137.443 194.566C120.391 194.566 109.168 182.647 109.168 164.551ZM151.276 164.029C151.276 152.632 146.056 145.585 137.53 145.585C128.917 145.585 123.61 152.545 123.61 163.855C123.61 175.426 128.83 182.386 137.53 182.386C146.056 182.386 151.276 175.426 151.276 164.029Z" fill="#908F8F"/>
</svg>
