<svg width="271" height="310" viewBox="0 0 271 310" fill="none" xmlns="http://www.w3.org/2000/svg">
<path d="M19.3 0H183.5L270.5 86.7V289.9C270.5 300.6 261.8 309.2 251.2 309.2H19.2C8.6 309.2 0 300.6 0 289.9V19.3C0 8.7 8.7 0 19.3 0Z" fill="#908F8F"/>
<path d="M270.3 87.0002H203C192.3 87.0002 183.7 78.3002 183.7 67.7002V0.200195L270.3 87.0002Z" fill="#494949"/>
<path d="M31.8398 183.12C31.8398 187.84 33.9998 190 38.7198 190H50.9598C58.6398 190 63.8398 188.56 67.9998 185.12C73.9198 180.32 77.1198 172.72 77.1198 163.36C77.1198 146.64 67.2798 136.72 50.6398 136.72H38.7198C33.9198 136.72 31.8398 138.8 31.8398 143.6V183.12ZM44.3998 178.32V148.4H49.1998C59.3598 148.4 64.1598 153.2 64.1598 163.52C64.1598 169.68 61.9198 174.32 57.8398 176.64C55.9198 177.76 52.9598 178.32 48.7198 178.32H44.3998Z" fill="white"/>
<path d="M111.327 135.28C95.3267 135.28 85.3267 146.24 85.3267 163.84C85.3267 180.48 95.6467 191.44 111.327 191.44C127.247 191.44 137.327 180.48 137.327 163.36C137.327 146.24 127.167 135.28 111.327 135.28ZM111.407 146.4C119.247 146.4 124.047 152.88 124.047 163.36C124.047 173.84 119.247 180.24 111.407 180.24C103.407 180.24 98.6067 173.84 98.6067 163.2C98.6067 152.8 103.487 146.4 111.407 146.4Z" fill="white"/>
<path d="M172.595 135.12C156.195 135.12 145.555 146.16 145.555 163.12C145.555 180.08 156.115 191.6 171.715 191.6C177.155 191.6 182.755 190 185.795 187.44C187.555 186.08 188.275 184.64 188.275 182.64C188.275 179.28 185.955 176.48 183.235 176.48C182.195 176.48 181.795 176.56 178.675 177.84C176.275 178.72 173.875 179.2 171.635 179.2C164.035 179.2 158.915 172.88 158.915 163.52C158.915 154 164.035 147.36 171.315 147.36C173.395 147.36 176.355 147.92 179.235 148.96C180.595 149.36 181.955 149.68 182.835 149.68C185.395 149.68 187.795 146.64 187.795 143.28C187.795 138.48 181.555 135.12 172.595 135.12Z" fill="white"/>
<path d="M217.787 172.48L226.347 184.56L228.027 186.96C229.787 189.6 231.947 190.96 234.267 190.96C237.867 190.96 240.427 188.48 240.427 185.04C240.427 183.12 239.227 180.72 236.267 176.96C235.627 176.08 234.827 175.04 233.947 173.84L224.987 161.52L231.227 152.88C232.107 151.68 232.907 150.64 233.627 149.68C236.507 146 237.787 143.6 237.787 141.68C237.787 138.64 234.747 135.76 231.467 135.76C228.987 135.76 227.867 136.64 224.107 141.68L217.547 150.56L211.307 141.68C207.947 136.96 206.587 135.76 204.187 135.76C200.827 135.76 197.707 138.56 197.707 141.6C197.707 143.36 199.147 146.16 201.867 149.68C202.907 151.12 203.707 152.24 204.267 152.88L210.427 161.6L201.467 173.92C200.507 175.28 199.707 176.4 199.067 177.12C195.867 181.2 194.907 183.12 194.907 185.28C194.907 188.48 197.627 191.04 201.067 191.04C203.627 191.04 205.227 189.84 208.027 186.08L209.067 184.64L217.787 172.48Z" fill="white"/>
<path fill-rule="evenodd" clip-rule="evenodd" d="M67.6175 184.658L67.622 184.654C73.3704 179.993 76.5198 172.583 76.5198 163.36C76.5198 155.117 74.0965 148.624 69.6942 144.193C65.2924 139.762 58.8404 137.32 50.6398 137.32H38.7198C36.3908 137.32 34.8617 137.827 33.9041 138.784C32.9465 139.742 32.4398 141.271 32.4398 143.6V183.12C32.4398 185.401 32.9628 186.935 33.9341 187.906C34.9054 188.877 36.439 189.4 38.7198 189.4H50.9598C58.5641 189.4 63.6057 187.975 67.6175 184.658ZM43.7998 178.92V147.8H49.1998C54.3637 147.8 58.289 149.019 60.9158 151.668C63.5417 154.315 64.7598 158.279 64.7598 163.52C64.7598 169.818 62.4634 174.7 58.1395 177.16C56.0787 178.361 52.9875 178.92 48.7198 178.92H43.7998ZM92.7703 143.364C88.3941 148.168 85.9267 155.151 85.9267 163.84C85.9267 172.036 88.4665 178.779 92.8835 183.469C97.2972 188.155 103.632 190.84 111.327 190.84C119.143 190.84 125.475 188.154 129.856 183.413C134.242 178.667 136.727 171.804 136.727 163.36C136.727 154.918 134.223 148.054 129.827 143.308C125.435 138.566 119.102 135.88 111.327 135.88C103.47 135.88 97.1406 138.567 92.7703 143.364ZM121.148 150.592C123.429 153.658 124.647 158.038 124.647 163.36C124.647 168.682 123.429 173.044 121.147 176.09C118.85 179.156 115.51 180.84 111.407 180.84C107.228 180.84 103.846 179.159 101.527 176.07C99.2236 173.003 98.0067 168.601 98.0067 163.2C98.0067 157.915 99.2458 153.573 101.559 150.536C103.887 147.482 107.267 145.8 111.407 145.8C115.512 145.8 118.852 147.507 121.148 150.592ZM185.418 186.973L185.428 186.965C186.258 186.324 186.811 185.688 187.161 185.006C187.509 184.327 187.675 183.565 187.675 182.64C187.675 179.496 185.518 177.08 183.235 177.08C182.751 177.08 182.451 177.097 181.902 177.256C181.318 177.426 180.469 177.753 178.903 178.395L178.892 178.4L178.881 178.403C176.429 179.303 173.958 179.8 171.635 179.8C167.654 179.8 164.303 178.138 161.959 175.248C159.624 172.368 158.315 168.305 158.315 163.52C158.315 158.658 159.622 154.481 161.909 151.505C164.204 148.518 167.474 146.76 171.315 146.76C173.477 146.76 176.5 147.337 179.421 148.39C180.78 148.789 182.056 149.08 182.835 149.08C183.873 149.08 184.955 148.457 185.802 147.371C186.642 146.293 187.195 144.822 187.195 143.28C187.195 141.181 185.839 139.308 183.271 137.929C180.704 136.549 177.01 135.72 172.595 135.72C164.534 135.72 157.938 138.43 153.357 143.177C148.773 147.926 146.155 154.766 146.155 163.12C146.155 171.476 148.755 178.443 153.227 183.314C157.695 188.181 164.07 191 171.715 191C177.074 191 182.515 189.418 185.408 186.981L185.418 186.973ZM179.235 148.96C176.355 147.92 173.395 147.36 171.315 147.36C164.035 147.36 158.915 154 158.915 163.52C158.915 172.88 164.035 179.2 171.635 179.2C173.875 179.2 176.275 178.72 178.675 177.84C181.795 176.56 182.195 176.48 183.235 176.48C185.955 176.48 188.275 179.28 188.275 182.64C188.275 184.64 187.555 186.08 185.795 187.44C182.755 190 177.155 191.6 171.715 191.6C156.115 191.6 145.555 180.08 145.555 163.12C145.555 146.16 156.195 135.12 172.595 135.12C181.555 135.12 187.795 138.48 187.795 143.28C187.795 146.64 185.395 149.68 182.835 149.68C181.955 149.68 180.595 149.36 179.235 148.96ZM217.79 171.446L226.838 184.216L228.526 186.627C230.216 189.162 232.212 190.36 234.267 190.36C237.557 190.36 239.827 188.128 239.827 185.04C239.827 183.349 238.759 181.096 235.795 177.331L235.788 177.322L235.781 177.313C235.456 176.866 235.104 176.396 234.72 175.885C234.334 175.37 233.917 174.814 233.463 174.195L233.461 174.193L224.246 161.521L230.743 152.525C231.342 151.708 231.907 150.961 232.432 150.268C232.679 149.941 232.918 149.625 233.147 149.32L233.154 149.31C234.585 147.482 235.6 145.995 236.255 144.742C236.911 143.488 237.187 142.507 237.187 141.68C237.187 140.36 236.522 139.03 235.446 138.017C234.371 137.007 232.933 136.36 231.467 136.36C230.881 136.36 230.413 136.412 229.979 136.549C229.55 136.684 229.124 136.911 228.642 137.298C227.652 138.092 226.476 139.508 224.588 142.038C224.588 142.038 224.588 142.039 224.588 142.039L217.535 151.586L210.818 142.028C210.818 142.028 210.818 142.028 210.818 142.028C209.134 139.663 207.994 138.244 207.001 137.41C206.051 136.612 205.249 136.36 204.187 136.36C202.671 136.36 201.19 136.994 200.088 137.986C198.984 138.98 198.307 140.287 198.307 141.6C198.307 142.337 198.615 143.375 199.3 144.706C199.978 146.022 200.995 147.571 202.341 149.313L202.347 149.321L202.353 149.329C202.431 149.437 202.507 149.542 202.582 149.646C203.518 150.943 204.222 151.918 204.718 152.485L204.739 152.508L211.165 161.605L201.957 174.266C201.956 174.267 201.955 174.269 201.954 174.27C201.008 175.61 200.192 176.754 199.528 177.505C196.334 181.578 195.507 183.349 195.507 185.28C195.507 188.113 197.921 190.44 201.067 190.44C202.231 190.44 203.146 190.174 204.106 189.483C205.096 188.771 206.149 187.596 207.543 185.726C207.544 185.724 207.545 185.723 207.546 185.722L208.579 184.29L208.58 184.289L217.79 171.446ZM209.067 184.64L208.027 186.08C205.227 189.84 203.627 191.04 201.067 191.04C197.627 191.04 194.907 188.48 194.907 185.28C194.907 183.12 195.867 181.2 199.067 177.12C199.707 176.4 200.507 175.28 201.467 173.92L210.427 161.6L204.267 152.88C203.751 152.29 203.031 151.293 202.107 150.013C202.028 149.904 201.948 149.793 201.867 149.68C199.147 146.16 197.707 143.36 197.707 141.6C197.707 138.56 200.827 135.76 204.187 135.76C206.587 135.76 207.947 136.96 211.307 141.68L217.547 150.56L224.107 141.68C227.867 136.64 228.987 135.76 231.467 135.76C234.747 135.76 237.787 138.64 237.787 141.68C237.787 143.6 236.507 146 233.627 149.68C233.395 149.989 233.155 150.306 232.907 150.635C232.383 151.326 231.824 152.066 231.227 152.88L224.987 161.52L233.947 173.84C234.387 174.44 234.807 175 235.197 175.52C235.587 176.04 235.947 176.52 236.267 176.96C239.227 180.72 240.427 183.12 240.427 185.04C240.427 188.48 237.867 190.96 234.267 190.96C231.947 190.96 229.787 189.6 228.027 186.96L226.347 184.56L217.787 172.48L209.067 184.64ZM38.7198 190C33.9998 190 31.8398 187.84 31.8398 183.12V143.6C31.8398 138.8 33.9198 136.72 38.7198 136.72H50.6398C67.2798 136.72 77.1198 146.64 77.1198 163.36C77.1198 172.72 73.9198 180.32 67.9998 185.12C63.8398 188.56 58.6398 190 50.9598 190H38.7198ZM44.3998 178.32H48.7198C52.9598 178.32 55.9198 177.76 57.8398 176.64C61.9198 174.32 64.1598 169.68 64.1598 163.52C64.1598 153.2 59.3598 148.4 49.1998 148.4H44.3998V178.32ZM85.3267 163.84C85.3267 146.24 95.3267 135.28 111.327 135.28C127.167 135.28 137.327 146.24 137.327 163.36C137.327 180.48 127.247 191.44 111.327 191.44C95.6467 191.44 85.3267 180.48 85.3267 163.84ZM124.047 163.36C124.047 152.88 119.247 146.4 111.407 146.4C103.487 146.4 98.6067 152.8 98.6067 163.2C98.6067 173.84 103.407 180.24 111.407 180.24C119.247 180.24 124.047 173.84 124.047 163.36Z" fill="#908F8F"/>
</svg>
