<svg width="271" height="310" viewBox="0 0 271 310" fill="none" xmlns="http://www.w3.org/2000/svg">
<path d="M19.3 0H183.5L270.5 86.7V289.9C270.5 300.6 261.8 309.2 251.2 309.2H19.2C8.6 309.2 0 300.6 0 289.9V19.3C0 8.7 8.7 0 19.3 0Z" fill="#908F8F"/>
<path d="M270.3 87.0002H203C192.3 87.0002 183.7 78.3002 183.7 67.7002V0.200195L270.3 87.0002Z" fill="#494949"/>
<path d="M56.792 175.426C56.792 179.341 55.226 181.516 52.529 181.516C51.398 181.516 50.528 181.168 48.527 179.95C46.874 178.906 45.917 178.558 44.612 178.558C40.958 178.558 38 181.429 38 184.996C38 190.651 44.351 194.566 53.486 194.566C64.796 194.566 70.451 188.389 70.451 176.122V141.322C70.451 136.624 68.015 134.014 63.665 134.014C59.315 134.014 56.792 136.711 56.792 141.322V175.426Z" fill="white"/>
<path d="M94.9442 174.295H103.731C108.951 174.295 112.257 173.686 115.302 172.033C120.609 169.249 124.263 162.289 124.263 154.981C124.263 147.238 120.87 140.626 115.215 137.494C112.257 135.841 108.342 135.058 103.209 135.058H88.7672C83.7212 135.058 81.2852 137.494 81.2852 142.54V186.649C81.2852 191.26 83.8082 193.87 88.1582 193.87C92.4212 193.87 94.9442 191.26 94.9442 186.649V174.295ZM94.9442 162.463V147.325H101.469C107.124 147.325 109.995 149.848 109.995 154.894C109.995 159.853 106.863 162.463 101.121 162.463H94.9442Z" fill="white"/>
<path d="M147.613 180.298V170.032H159.01C163.882 170.032 166.231 167.944 166.231 163.507C166.231 159.331 163.882 157.33 159.01 157.33H147.613V147.76H159.967C164.926 147.76 167.275 145.672 167.275 141.235C167.275 137.059 164.926 135.058 159.967 135.058H141.436C136.39 135.058 133.954 137.494 133.954 142.54V185.518C133.954 190.651 136.303 193 141.436 193H160.663C165.535 193 167.971 190.825 167.971 186.475C167.971 182.299 165.622 180.298 160.663 180.298H147.613Z" fill="white"/>
<path d="M216.954 170.902C216.519 174.295 215.91 175.774 214.518 177.514C212.43 180.211 208.689 181.864 204.948 181.864C196.596 181.864 190.593 174.469 190.593 164.203C190.593 153.241 196.509 146.02 205.557 146.02C208.167 146.02 211.038 146.89 213.039 148.195L215.91 150.022C217.911 151.327 219.564 151.936 220.956 151.936C224.349 151.936 227.046 149.152 227.046 145.672C227.046 139.06 217.041 133.492 205.209 133.492C187.374 133.492 176.064 145.324 176.064 163.942C176.064 182.734 187.2 194.566 204.774 194.566C209.994 194.566 214.257 193.522 217.998 191.434C226.089 186.736 231.135 177.514 231.135 167.248C231.135 160.897 228.786 158.026 223.74 158.026H210.429C205.731 158.026 202.947 160.462 202.947 164.464C202.947 168.553 205.644 170.902 210.255 170.902H216.954Z" fill="white"/>
<path fill-rule="evenodd" clip-rule="evenodd" d="M48.2066 180.457C46.6017 179.444 45.7579 179.158 44.612 179.158C41.2736 179.158 38.6 181.776 38.6 184.996C38.6 187.566 40.0333 189.786 42.6326 191.391C45.2418 193.003 48.9952 193.966 53.486 193.966C59.0343 193.966 63.0897 192.453 65.7679 189.538C68.4549 186.614 69.851 182.175 69.851 176.122V141.322C69.851 139.071 69.2679 137.41 68.2499 136.315C67.238 135.227 65.7184 134.614 63.665 134.614C61.6167 134.614 60.0715 135.246 59.0346 136.35C57.9928 137.459 57.392 139.122 57.392 141.322V175.426C57.392 177.451 56.9891 179.113 56.1622 180.285C55.3152 181.486 54.062 182.116 52.529 182.116C51.2193 182.116 50.2256 181.687 48.215 180.463L48.2066 180.457ZM94.3442 173.695H103.731C108.905 173.695 112.096 173.091 115.016 171.506L115.023 171.502C120.086 168.846 123.663 162.125 123.663 154.981C123.663 147.402 120.345 141.021 114.925 138.019L114.923 138.018C112.09 136.435 108.29 135.658 103.209 135.658H88.7672C86.3314 135.658 84.6432 136.246 83.5582 137.331C82.4733 138.416 81.8852 140.104 81.8852 142.54V186.649C81.8852 188.849 82.4858 190.488 83.5242 191.574C84.559 192.657 86.1043 193.27 88.1582 193.27C90.1654 193.27 91.6889 192.659 92.7142 191.576C93.7436 190.489 94.3442 188.849 94.3442 186.649V173.695ZM94.3442 163.063V146.725H101.469C104.374 146.725 106.673 147.372 108.251 148.768C109.842 150.177 110.595 152.257 110.595 154.894C110.595 157.506 109.765 159.584 108.099 160.996C106.451 162.394 104.072 163.063 101.121 163.063H94.3442ZM147.013 180.898V169.432H159.01C161.375 169.432 163.007 168.923 164.046 167.988C165.073 167.064 165.631 165.624 165.631 163.507C165.631 161.532 165.079 160.182 164.058 159.309C163.017 158.419 161.38 157.93 159.01 157.93H147.013V147.16H159.967C162.378 147.16 164.031 146.65 165.081 145.714C166.117 144.79 166.675 143.352 166.675 141.235C166.675 139.26 166.124 137.911 165.093 137.039C164.042 136.148 162.383 135.658 159.967 135.658H141.436C139 135.658 137.312 136.246 136.227 137.331C135.142 138.416 134.554 140.104 134.554 142.54V185.518C134.554 188.006 135.124 189.69 136.195 190.76C137.265 191.83 138.949 192.4 141.436 192.4H160.663C163.022 192.4 164.68 191.872 165.745 190.921C166.796 189.982 167.371 188.539 167.371 186.475C167.371 184.5 166.82 183.151 165.789 182.279C164.738 181.388 163.079 180.898 160.663 180.898H147.013ZM217.635 170.302L217.549 170.978C217.329 172.695 217.06 173.965 216.656 175.039C216.249 176.122 215.713 176.98 214.989 177.885C212.77 180.749 208.843 182.464 204.948 182.464C196.154 182.464 189.993 174.678 189.993 164.203C189.993 158.619 191.499 153.928 194.218 150.62C196.946 147.301 200.859 145.42 205.557 145.42C208.28 145.42 211.264 146.322 213.364 147.691C213.365 147.692 213.366 147.692 213.366 147.693L216.237 149.52C218.197 150.797 219.732 151.336 220.956 151.336C224.001 151.336 226.446 148.837 226.446 145.672C226.446 142.689 224.176 139.803 220.272 137.627C216.394 135.465 211.038 134.092 205.209 134.092C196.428 134.092 189.308 137.001 184.381 142.15C179.452 147.302 176.664 154.755 176.664 163.942C176.664 173.221 179.411 180.718 184.266 185.891C189.117 191.059 196.126 193.966 204.774 193.966C209.906 193.966 214.064 192.941 217.701 190.913C225.585 186.332 230.535 177.321 230.535 167.248C230.535 164.127 229.954 161.987 228.862 160.632C227.794 159.306 226.147 158.626 223.74 158.626H210.429C208.177 158.626 206.462 159.21 205.318 160.198C204.186 161.177 203.547 162.611 203.547 164.464C203.547 166.37 204.17 167.802 205.267 168.766C206.376 169.739 208.044 170.302 210.255 170.302H217.635ZM217.998 191.434C214.257 193.522 209.994 194.566 204.774 194.566C187.2 194.566 176.064 182.734 176.064 163.942C176.064 145.324 187.374 133.492 205.209 133.492C217.041 133.492 227.046 139.06 227.046 145.672C227.046 149.152 224.349 151.936 220.956 151.936C219.564 151.936 217.911 151.327 215.91 150.022L213.039 148.195C211.038 146.89 208.167 146.02 205.557 146.02C196.509 146.02 190.593 153.241 190.593 164.203C190.593 174.469 196.596 181.864 204.948 181.864C208.689 181.864 212.43 180.211 214.518 177.514C215.825 175.88 216.441 174.477 216.872 171.502C216.9 171.309 216.927 171.109 216.954 170.902H210.255C205.644 170.902 202.947 168.553 202.947 164.464C202.947 160.462 205.731 158.026 210.429 158.026H223.74C228.786 158.026 231.135 160.897 231.135 167.248C231.135 177.514 226.089 186.736 217.998 191.434ZM52.529 181.516C55.226 181.516 56.792 179.341 56.792 175.426V141.322C56.792 136.711 59.315 134.014 63.665 134.014C68.015 134.014 70.451 136.624 70.451 141.322V176.122C70.451 188.389 64.796 194.566 53.486 194.566C44.351 194.566 38 190.651 38 184.996C38 181.429 40.958 178.558 44.612 178.558C45.917 178.558 46.874 178.906 48.527 179.95C50.528 181.168 51.398 181.516 52.529 181.516ZM94.9442 174.295V186.649C94.9442 191.26 92.4212 193.87 88.1582 193.87C83.8082 193.87 81.2852 191.26 81.2852 186.649V142.54C81.2852 137.494 83.7212 135.058 88.7672 135.058H103.209C108.342 135.058 112.257 135.841 115.215 137.494C120.87 140.626 124.263 147.238 124.263 154.981C124.263 162.289 120.609 169.249 115.302 172.033C112.257 173.686 108.951 174.295 103.731 174.295H94.9442ZM94.9442 162.463H101.121C106.863 162.463 109.995 159.853 109.995 154.894C109.995 149.848 107.124 147.325 101.469 147.325H94.9442V162.463ZM147.613 180.298H160.663C165.622 180.298 167.971 182.299 167.971 186.475C167.971 190.825 165.535 193 160.663 193H141.436C136.303 193 133.954 190.651 133.954 185.518V142.54C133.954 137.494 136.39 135.058 141.436 135.058H159.967C164.926 135.058 167.275 137.059 167.275 141.235C167.275 145.672 164.926 147.76 159.967 147.76H147.613V157.33H159.01C163.882 157.33 166.231 159.331 166.231 163.507C166.231 167.944 163.882 170.032 159.01 170.032H147.613V180.298Z" fill="#908F8F"/>
</svg>
