<svg width="271" height="310" viewBox="0 0 271 310" fill="none" xmlns="http://www.w3.org/2000/svg">
<path d="M19.3 0H183.5L270.5 86.7V289.9C270.5 300.6 261.8 309.2 251.2 309.2H19.2C8.6 309.2 0 300.6 0 289.9V19.3C0 8.7 8.7 0 19.3 0Z" fill="#908F8F"/>
<path d="M270.3 87.0002H203C192.3 87.0002 183.7 78.3002 183.7 67.7002V0.200195L270.3 87.0002Z" fill="#494949"/>
<path d="M77.792 175.426C77.792 179.341 76.226 181.516 73.529 181.516C72.398 181.516 71.528 181.168 69.527 179.95C67.874 178.906 66.917 178.558 65.612 178.558C61.958 178.558 59 181.429 59 184.996C59 190.651 65.351 194.566 74.486 194.566C85.796 194.566 91.451 188.389 91.451 176.122V141.322C91.451 136.624 89.015 134.014 84.665 134.014C80.315 134.014 77.792 136.711 77.792 141.322V175.426Z" fill="white"/>
<path d="M115.944 174.295H124.731C129.951 174.295 133.257 173.686 136.302 172.033C141.609 169.249 145.263 162.289 145.263 154.981C145.263 147.238 141.87 140.626 136.215 137.494C133.257 135.841 129.342 135.058 124.209 135.058H109.767C104.721 135.058 102.285 137.494 102.285 142.54V186.649C102.285 191.26 104.808 193.87 109.158 193.87C113.421 193.87 115.944 191.26 115.944 186.649V174.295ZM115.944 162.463V147.325H122.469C128.124 147.325 130.995 149.848 130.995 154.894C130.995 159.853 127.863 162.463 122.121 162.463H115.944Z" fill="white"/>
<path d="M194.8 170.902C194.365 174.295 193.756 175.774 192.364 177.514C190.276 180.211 186.535 181.864 182.794 181.864C174.442 181.864 168.439 174.469 168.439 164.203C168.439 153.241 174.355 146.02 183.403 146.02C186.013 146.02 188.884 146.89 190.885 148.195L193.756 150.022C195.757 151.327 197.41 151.936 198.802 151.936C202.195 151.936 204.892 149.152 204.892 145.672C204.892 139.06 194.887 133.492 183.055 133.492C165.22 133.492 153.91 145.324 153.91 163.942C153.91 182.734 165.046 194.566 182.62 194.566C187.84 194.566 192.103 193.522 195.844 191.434C203.935 186.736 208.981 177.514 208.981 167.248C208.981 160.897 206.632 158.026 201.586 158.026H188.275C183.577 158.026 180.793 160.462 180.793 164.464C180.793 168.553 183.49 170.902 188.101 170.902H194.8Z" fill="white"/>
<path fill-rule="evenodd" clip-rule="evenodd" d="M69.2066 180.457C67.6017 179.444 66.7579 179.158 65.612 179.158C62.2736 179.158 59.6 181.776 59.6 184.996C59.6 187.566 61.0333 189.786 63.6326 191.391C66.2418 193.003 69.9952 193.966 74.486 193.966C80.0343 193.966 84.0897 192.453 86.7679 189.538C89.4549 186.614 90.851 182.175 90.851 176.122V141.322C90.851 139.071 90.2679 137.41 89.2499 136.315C88.238 135.227 86.7184 134.614 84.665 134.614C82.6167 134.614 81.0715 135.246 80.0346 136.35C78.9928 137.459 78.392 139.122 78.392 141.322V175.426C78.392 177.451 77.9891 179.113 77.1622 180.285C76.3152 181.486 75.062 182.116 73.529 182.116C72.2193 182.116 71.2256 181.687 69.215 180.463L69.2066 180.457ZM115.344 173.695H124.731C129.905 173.695 133.096 173.091 136.016 171.506L136.023 171.502C141.086 168.846 144.663 162.125 144.663 154.981C144.663 147.402 141.345 141.021 135.925 138.019L135.923 138.018C133.09 136.435 129.29 135.658 124.209 135.658H109.767C107.331 135.658 105.643 136.246 104.558 137.331C103.473 138.416 102.885 140.104 102.885 142.54V186.649C102.885 188.849 103.486 190.488 104.524 191.574C105.559 192.657 107.104 193.27 109.158 193.27C111.165 193.27 112.689 192.659 113.714 191.576C114.744 190.489 115.344 188.849 115.344 186.649V173.695ZM115.344 163.063V146.725H122.469C125.374 146.725 127.673 147.372 129.251 148.768C130.842 150.177 131.595 152.257 131.595 154.894C131.595 157.506 130.765 159.584 129.099 160.996C127.451 162.394 125.072 163.063 122.121 163.063H115.344ZM195.482 170.302L195.395 170.978C195.175 172.695 194.907 173.965 194.503 175.039C194.095 176.122 193.559 176.98 192.836 177.885C190.617 180.749 186.689 182.464 182.794 182.464C174 182.464 167.839 174.678 167.839 164.203C167.839 158.619 169.346 153.928 172.065 150.62C174.792 147.301 178.706 145.42 183.403 145.42C186.126 145.42 189.11 146.322 191.211 147.691C191.211 147.692 191.212 147.692 191.213 147.693L194.084 149.52C196.043 150.797 197.579 151.336 198.802 151.336C201.847 151.336 204.292 148.837 204.292 145.672C204.292 142.689 202.023 139.803 198.119 137.627C194.24 135.465 188.885 134.092 183.055 134.092C174.275 134.092 167.154 137.001 162.228 142.15C157.299 147.302 154.51 154.755 154.51 163.942C154.51 173.221 157.258 180.718 162.112 185.891C166.963 191.059 173.973 193.966 182.62 193.966C187.753 193.966 191.911 192.941 195.547 190.913C203.432 186.332 208.381 177.321 208.381 167.248C208.381 164.127 207.8 161.987 206.709 160.632C205.64 159.306 203.993 158.626 201.586 158.626H188.275C186.024 158.626 184.309 159.21 183.165 160.198C182.032 161.177 181.393 162.611 181.393 164.464C181.393 166.37 182.017 167.802 183.114 168.766C184.222 169.739 185.891 170.302 188.101 170.302H195.482ZM195.844 191.434C192.103 193.522 187.84 194.566 182.62 194.566C165.046 194.566 153.91 182.734 153.91 163.942C153.91 145.324 165.22 133.492 183.055 133.492C194.887 133.492 204.892 139.06 204.892 145.672C204.892 149.152 202.195 151.936 198.802 151.936C197.41 151.936 195.757 151.327 193.756 150.022L190.885 148.195C188.884 146.89 186.013 146.02 183.403 146.02C174.355 146.02 168.439 153.241 168.439 164.203C168.439 174.469 174.442 181.864 182.794 181.864C186.535 181.864 190.276 180.211 192.364 177.514C193.671 175.88 194.288 174.477 194.719 171.502C194.746 171.309 194.774 171.109 194.8 170.902H188.101C183.49 170.902 180.793 168.553 180.793 164.464C180.793 160.462 183.577 158.026 188.275 158.026H201.586C206.632 158.026 208.981 160.897 208.981 167.248C208.981 177.514 203.935 186.736 195.844 191.434ZM73.529 181.516C76.226 181.516 77.792 179.341 77.792 175.426V141.322C77.792 136.711 80.315 134.014 84.665 134.014C89.015 134.014 91.451 136.624 91.451 141.322V176.122C91.451 188.389 85.796 194.566 74.486 194.566C65.351 194.566 59 190.651 59 184.996C59 181.429 61.958 178.558 65.612 178.558C66.917 178.558 67.874 178.906 69.527 179.95C71.528 181.168 72.398 181.516 73.529 181.516ZM115.944 174.295V186.649C115.944 191.26 113.421 193.87 109.158 193.87C104.808 193.87 102.285 191.26 102.285 186.649V142.54C102.285 137.494 104.721 135.058 109.767 135.058H124.209C129.342 135.058 133.257 135.841 136.215 137.494C141.87 140.626 145.263 147.238 145.263 154.981C145.263 162.289 141.609 169.249 136.302 172.033C133.257 173.686 129.951 174.295 124.731 174.295H115.944ZM115.944 162.463H122.121C127.863 162.463 130.995 159.853 130.995 154.894C130.995 149.848 128.124 147.325 122.469 147.325H115.944V162.463Z" fill="#908F8F"/>
</svg>
