<svg width="271" height="310" viewBox="0 0 271 310" fill="none" xmlns="http://www.w3.org/2000/svg">
<path d="M19.3 0H183.5L270.5 86.7V289.9C270.5 300.6 261.8 309.2 251.2 309.2H19.2C8.6 309.2 0 300.6 0 289.9V19.3C0 8.7 8.7 0 19.3 0Z" fill="#908F8F"/>
<path d="M270.3 87.0002H203C192.3 87.0002 183.7 78.3002 183.7 67.7002V0.200195L270.3 87.0002Z" fill="#494949"/>
<path d="M35.6395 161.368L46.6315 176.392L48.3595 178.744C49.7995 180.808 51.0955 181.624 52.7755 181.624C55.2715 181.624 56.2795 179.896 56.2795 175.528V152.536C56.2795 149.944 54.9355 148.552 52.5355 148.552C50.1355 148.552 48.7435 150.04 48.7435 152.536V167.704L38.2315 153.304C34.9675 148.84 34.1035 148.072 32.1355 148.072C29.3035 148.072 28.1035 149.848 28.1035 154.168V177.544C28.1035 180.088 29.4955 181.528 31.8955 181.528C34.2475 181.528 35.6395 180.088 35.6395 177.544V161.368Z" fill="white"/>
<path d="M62.3185 167.944C62.3185 176.392 67.7905 181.912 76.1905 181.912C81.6145 181.912 86.2225 179.416 88.4305 175.288C89.5345 173.224 90.0625 170.776 90.0625 167.56V152.536C90.0625 149.992 88.6705 148.552 86.3185 148.552C83.9185 148.552 82.5265 149.992 82.5265 152.536V167.608C82.5265 172.216 80.2705 174.76 76.1905 174.76C72.1585 174.76 69.8545 172.12 69.8545 167.56V152.536C69.8545 150.04 68.4625 148.552 66.0625 148.552C63.7105 148.552 62.3185 149.992 62.3185 152.536V167.944Z" fill="white"/>
<path d="M105.184 161.896L109.744 176.968C110.8 180.472 111.808 181.48 114.16 181.48C116.704 181.48 117.664 180.52 118.768 176.968L123.376 161.896L125.584 175.816C126.304 180.136 127.216 181.432 129.76 181.432C131.92 181.432 133.312 180.088 133.312 177.928C133.312 177.304 133.168 175.912 132.928 174.52L132.592 172.408L129.376 153.544C128.752 149.896 127.312 148.36 124.432 148.36C121.84 148.36 120.208 149.8 119.296 152.92L114.304 169.528L109.264 152.92C108.352 149.8 106.72 148.36 104.128 148.36C101.248 148.36 99.8076 149.896 99.1836 153.544L95.9676 172.408L95.6316 174.52C95.3916 176.008 95.2476 177.352 95.2476 177.88C95.2476 180.088 96.5916 181.432 98.7996 181.432C101.344 181.432 102.256 180.184 102.976 175.816L105.184 161.896Z" fill="white"/>
<path d="M142.564 149.032C139.78 149.032 138.436 150.376 138.436 153.16V176.872C138.436 179.704 139.732 181 142.564 181H150.868C154.612 181 157.252 180.376 158.692 179.176C160.948 177.304 162.196 174.664 162.196 171.64C162.196 167.416 160.036 164.584 155.956 163.432C158.452 161.944 159.508 160.12 159.508 157.288C159.508 154.216 157.972 151.384 155.62 150.088C154.132 149.32 152.5 149.032 148.996 149.032H142.564ZM145.972 174.328V167.896H150.292C153.172 167.896 154.516 168.904 154.516 171.064C154.516 173.272 153.316 174.328 150.628 174.328H145.972ZM145.972 161.368V155.608H148.516C151.108 155.608 152.308 156.52 152.308 158.488C152.308 160.408 151.06 161.368 148.66 161.368H145.972Z" fill="white"/>
<path d="M175.125 173.992V168.328H181.413C184.101 168.328 185.397 167.176 185.397 164.728C185.397 162.424 184.101 161.32 181.413 161.32H175.125V156.04H181.941C184.677 156.04 185.973 154.888 185.973 152.44C185.973 150.136 184.677 149.032 181.941 149.032H171.717C168.933 149.032 167.589 150.376 167.589 153.16V176.872C167.589 179.704 168.885 181 171.717 181H182.325C185.013 181 186.357 179.8 186.357 177.4C186.357 175.096 185.061 173.992 182.325 173.992H175.125Z" fill="white"/>
<path d="M198.933 168.232L207.093 178.6C208.821 180.808 209.685 181.432 210.981 181.432C213.141 181.432 214.677 179.896 214.677 177.784C214.677 176.68 214.101 175.624 212.661 174.04C212.181 173.464 211.749 172.984 211.413 172.552L207.285 167.656C212.085 166.6 214.341 163.768 214.341 158.872C214.341 155.224 212.517 152.056 209.445 150.376C207.765 149.464 205.413 149.032 201.765 149.032H195.525C192.741 149.032 191.397 150.376 191.397 153.16V177.496C191.397 180.04 192.789 181.48 195.189 181.48C197.541 181.48 198.933 180.04 198.933 177.496V168.232ZM198.933 162.712V155.8H202.533C205.557 155.8 206.997 156.856 206.997 159.112C206.997 161.464 205.413 162.712 202.341 162.712H198.933Z" fill="white"/>
<path d="M225.031 173.272C223.927 172.888 223.015 172.696 222.391 172.696C220.471 172.696 218.983 174.28 218.983 176.392C218.983 179.752 223.255 181.864 230.167 181.864C237.463 181.864 241.975 177.784 241.975 171.112C241.975 165.928 239.383 163.048 232.951 161.032L229.399 159.928C228.103 159.496 227.479 158.824 227.479 157.864C227.479 156.424 228.823 155.416 230.839 155.416C231.751 155.416 232.519 155.56 233.815 155.992C235.495 156.568 235.975 156.664 236.647 156.664C238.567 156.664 239.959 155.176 239.959 153.112C239.959 150.088 236.503 148.168 230.935 148.168C223.831 148.168 219.415 152.104 219.415 158.536C219.415 163.432 221.479 165.544 228.295 167.56C233.143 169 233.959 169.624 233.959 171.592C233.959 173.272 232.423 174.616 230.503 174.616C229.591 174.616 228.535 174.424 227.527 174.088L225.031 173.272Z" fill="white"/>
<path fill-rule="evenodd" clip-rule="evenodd" d="M35.0395 159.532L47.1158 176.038L48.8474 178.395L48.8516 178.401C49.5479 179.399 50.1795 180.051 50.8035 180.455C51.4144 180.85 52.0439 181.024 52.7755 181.024C53.3319 181.024 53.7621 180.928 54.1005 180.753C54.4332 180.581 54.7128 180.315 54.9438 179.915C55.4239 179.082 55.6795 177.695 55.6795 175.528V152.536C55.6795 151.338 55.3695 150.511 54.8717 149.985C54.3788 149.464 53.6197 149.152 52.5355 149.152C51.4621 149.152 50.6859 149.482 50.1751 150.021C49.66 150.565 49.3435 151.397 49.3435 152.536V169.544L37.7472 153.658C36.1053 151.413 35.1139 150.165 34.3058 149.469C33.9142 149.131 33.5843 148.94 33.2627 148.829C32.9391 148.717 32.5887 148.672 32.1355 148.672C30.8604 148.672 30.0705 149.06 29.5572 149.832C29.0051 150.663 28.7035 152.036 28.7035 154.168V177.544C28.7035 178.71 29.0213 179.54 29.5333 180.076C30.0416 180.608 30.8166 180.928 31.8955 180.928C32.9471 180.928 33.7102 180.61 34.2138 180.078C34.7216 179.541 35.0395 178.71 35.0395 177.544V159.532ZM38.2315 153.304L48.7435 167.704V152.536C48.7435 150.04 50.1355 148.552 52.5355 148.552C54.9355 148.552 56.2795 149.944 56.2795 152.536V175.528C56.2795 179.896 55.2715 181.624 52.7755 181.624C51.0955 181.624 49.7995 180.808 48.3595 178.744L46.6315 176.392L35.6395 161.368V177.544C35.6395 180.088 34.2475 181.528 31.8955 181.528C29.4955 181.528 28.1035 180.088 28.1035 177.544V154.168C28.1035 149.848 29.3035 148.072 32.1355 148.072C34.1035 148.072 34.9675 148.84 38.2315 153.304ZM66.5303 177.674C68.8189 179.979 72.1249 181.312 76.1905 181.312C81.4354 181.312 85.8163 178.904 87.9014 175.005C88.9457 173.053 89.4625 170.71 89.4625 167.56V152.536C89.4625 151.37 89.1446 150.539 88.6368 150.003C88.1332 149.471 87.3701 149.152 86.3185 149.152C85.2396 149.152 84.4646 149.473 83.9563 150.005C83.4443 150.54 83.1265 151.37 83.1265 152.536V167.608C83.1265 170.002 82.5409 171.952 81.3376 173.31C80.1242 174.68 78.3595 175.36 76.1905 175.36C74.0371 175.36 72.2749 174.65 71.0597 173.266C69.8543 171.893 69.2545 169.934 69.2545 167.56V152.536C69.2545 151.397 68.938 150.565 68.4229 150.021C67.9121 149.482 67.1359 149.152 66.0625 149.152C65.0109 149.152 64.2478 149.471 63.7442 150.003C63.2364 150.539 62.9185 151.37 62.9185 152.536V167.944C62.9185 172.036 64.2413 175.368 66.5303 177.674ZM104.591 161.802L105.758 161.723L110.318 176.795C110.843 178.537 111.326 179.54 111.894 180.118C112.419 180.653 113.078 180.88 114.16 180.88C115.355 180.88 116.046 180.656 116.583 180.128C117.162 179.559 117.643 178.564 118.194 176.792C118.194 176.792 118.194 176.791 118.195 176.79L122.802 161.721L123.968 161.802L126.175 175.718C126.176 175.718 126.176 175.719 126.176 175.72C126.536 177.882 126.929 179.153 127.471 179.889C127.728 180.238 128.018 180.464 128.366 180.608C128.722 180.757 129.171 180.832 129.76 180.832C130.714 180.832 131.441 180.537 131.926 180.062C132.409 179.588 132.712 178.876 132.712 177.928C132.712 177.355 132.574 176.002 132.336 174.622L132.335 174.615L132 172.509L131.999 172.503L128.784 153.645C128.48 151.867 127.992 150.71 127.315 149.998C126.661 149.309 125.758 148.96 124.432 148.96C123.256 148.96 122.35 149.283 121.632 149.919C120.901 150.567 120.31 151.59 119.872 153.089L119.87 153.093L114.306 171.604L108.688 153.089C108.25 151.59 107.659 150.567 106.928 149.919C106.21 149.283 105.304 148.96 104.128 148.96C102.801 148.96 101.899 149.309 101.245 149.998C100.568 150.71 100.079 151.867 99.7751 153.645L96.5602 172.503L96.5591 172.509L96.2242 174.615L96.224 174.616C95.9842 176.102 95.8476 177.405 95.8476 177.88C95.8476 178.862 96.1439 179.584 96.6199 180.06C97.0959 180.536 97.8181 180.832 98.7996 180.832C99.9583 180.832 100.606 180.558 101.09 179.905C101.63 179.176 102.023 177.907 102.383 175.72C102.383 175.72 102.384 175.719 102.384 175.719L104.591 161.802ZM102.976 175.816C102.256 180.184 101.344 181.432 98.7996 181.432C96.5916 181.432 95.2476 180.088 95.2476 177.88C95.2476 177.352 95.3916 176.008 95.6316 174.52L95.9676 172.408L99.1836 153.544C99.8076 149.896 101.248 148.36 104.128 148.36C106.72 148.36 108.352 149.8 109.264 152.92L114.304 169.528L119.296 152.92C120.208 149.8 121.84 148.36 124.432 148.36C127.312 148.36 128.752 149.896 129.376 153.544L132.592 172.408L132.928 174.52C133.168 175.912 133.312 177.304 133.312 177.928C133.312 180.088 131.92 181.432 129.76 181.432C127.216 181.432 126.304 180.136 125.584 175.816L123.376 161.896L118.768 176.968C117.664 180.52 116.704 181.48 114.16 181.48C111.808 181.48 110.8 180.472 109.744 176.968L105.184 161.896L102.976 175.816ZM158.308 178.715L158.309 178.715C160.426 176.958 161.596 174.488 161.596 171.64C161.596 169.632 161.084 168.003 160.129 166.748C159.173 165.491 157.734 164.558 155.793 164.01L154.451 163.631L155.649 162.917C156.836 162.209 157.638 161.447 158.149 160.564C158.659 159.682 158.908 158.628 158.908 157.288C158.908 154.402 157.464 151.794 155.338 150.618C153.984 149.921 152.471 149.632 148.996 149.632H142.564C141.259 149.632 140.409 149.947 139.88 150.477C139.351 151.006 139.036 151.855 139.036 153.16V176.872C139.036 178.209 139.343 179.055 139.862 179.574C140.382 180.093 141.227 180.4 142.564 180.4H150.868C154.588 180.4 157.04 179.772 158.308 178.715ZM156.617 163.006C158.64 161.595 159.508 159.856 159.508 157.288C159.508 154.216 157.972 151.384 155.62 150.088C154.132 149.32 152.5 149.032 148.996 149.032H142.564C139.78 149.032 138.436 150.376 138.436 153.16V176.872C138.436 179.704 139.732 181 142.564 181H150.868C154.612 181 157.252 180.376 158.692 179.176C160.948 177.304 162.196 174.664 162.196 171.64C162.196 167.683 160.3 164.948 156.706 163.671C156.464 163.585 156.214 163.505 155.956 163.432C156.189 163.293 156.409 163.152 156.617 163.006ZM145.372 174.928V167.296H150.292C151.781 167.296 152.994 167.553 153.844 168.19C154.73 168.855 155.116 169.85 155.116 171.064C155.116 172.275 154.784 173.289 153.968 173.982C153.175 174.656 152.032 174.928 150.628 174.928H145.372ZM145.372 161.968V155.008H148.516C149.862 155.008 150.968 155.241 151.747 155.832C152.561 156.451 152.908 157.374 152.908 158.488C152.908 159.588 152.543 160.502 151.754 161.12C150.992 161.718 149.925 161.968 148.66 161.968H145.372ZM174.525 174.592V167.728H181.413C182.686 167.728 183.508 167.453 184.011 167C184.502 166.559 184.797 165.85 184.797 164.728C184.797 163.689 184.508 163.031 184.023 162.616C183.518 162.185 182.69 161.92 181.413 161.92H174.525V155.44H181.941C183.24 155.44 184.074 155.164 184.583 154.71C185.078 154.269 185.373 153.562 185.373 152.44C185.373 151.401 185.084 150.745 184.595 150.33C184.085 149.898 183.245 149.632 181.941 149.632H171.717C170.412 149.632 169.562 149.947 169.033 150.477C168.504 151.006 168.189 151.855 168.189 153.16V176.872C168.189 178.209 168.495 179.055 169.015 179.574C169.534 180.093 170.38 180.4 171.717 180.4H182.325C183.592 180.4 184.43 180.116 184.949 179.653C185.455 179.201 185.757 178.489 185.757 177.4C185.757 176.361 185.468 175.705 184.979 175.29C184.469 174.858 183.629 174.592 182.325 174.592H174.525ZM198.333 166.5L207.565 178.229L207.566 178.23C208.426 179.33 209.031 179.98 209.552 180.359C210.041 180.714 210.456 180.832 210.981 180.832C212.815 180.832 214.077 179.56 214.077 177.784C214.077 176.92 213.641 176.01 212.217 174.444L212.209 174.434L212.2 174.424C212.029 174.219 211.858 174.019 211.692 173.825C211.418 173.505 211.16 173.203 210.947 172.93L206.186 167.284L207.156 167.07C209.467 166.562 211.092 165.643 212.145 164.329C213.199 163.015 213.741 161.23 213.741 158.872C213.741 155.432 212.027 152.473 209.158 150.903C207.612 150.064 205.382 149.632 201.765 149.632H195.525C194.22 149.632 193.371 149.947 192.842 150.477C192.312 151.006 191.997 151.855 191.997 153.16V177.496C191.997 178.662 192.315 179.492 192.827 180.028C193.335 180.56 194.11 180.88 195.189 180.88C196.241 180.88 197.004 180.562 197.508 180.03C198.015 179.493 198.333 178.662 198.333 177.496V166.5ZM209.445 150.376C212.517 152.056 214.341 155.224 214.341 158.872C214.341 163.541 212.29 166.333 207.937 167.498C207.725 167.555 207.508 167.607 207.285 167.656L211.413 172.552C211.62 172.818 211.864 173.103 212.133 173.417C212.3 173.612 212.477 173.819 212.661 174.04C214.101 175.624 214.677 176.68 214.677 177.784C214.677 179.896 213.141 181.432 210.981 181.432C209.685 181.432 208.821 180.808 207.093 178.6L198.933 168.232V177.496C198.933 180.04 197.541 181.48 195.189 181.48C192.789 181.48 191.397 180.04 191.397 177.496V153.16C191.397 150.376 192.741 149.032 195.525 149.032H201.765C205.413 149.032 207.765 149.464 209.445 150.376ZM198.333 163.312V155.2H202.533C204.095 155.2 205.366 155.469 206.256 156.128C207.184 156.814 207.597 157.845 207.597 159.112C207.597 160.435 207.144 161.527 206.189 162.268C205.261 162.989 203.944 163.312 202.341 163.312H198.333ZM224.833 173.839C223.753 173.463 222.916 173.296 222.391 173.296C220.844 173.296 219.583 174.568 219.583 176.392C219.583 177.764 220.437 178.962 222.247 179.85C224.065 180.742 226.759 181.264 230.167 181.264C233.706 181.264 236.5 180.276 238.403 178.546C240.299 176.823 241.375 174.307 241.375 171.112C241.375 168.629 240.758 166.768 239.428 165.285C238.08 163.781 235.944 162.599 232.771 161.605C232.771 161.605 232.771 161.605 232.771 161.605L229.209 160.498C228.507 160.264 227.925 159.945 227.513 159.503C227.088 159.045 226.879 158.489 226.879 157.864C226.879 156.937 227.32 156.152 228.047 155.617C228.763 155.091 229.737 154.816 230.839 154.816C231.837 154.816 232.672 154.979 234.004 155.423L234.009 155.425C235.684 155.999 236.082 156.064 236.647 156.064C238.197 156.064 239.359 154.885 239.359 153.112C239.359 151.874 238.667 150.814 237.245 150.032C235.806 149.24 233.662 148.768 230.935 148.768C227.49 148.768 224.766 149.722 222.911 151.387C221.064 153.045 220.015 155.465 220.015 158.536C220.015 160.895 220.509 162.469 221.727 163.708C222.98 164.983 225.071 165.981 228.465 166.985C230.866 167.698 232.387 168.239 233.295 168.891C233.771 169.233 234.105 169.623 234.307 170.1C234.505 170.564 234.559 171.065 234.559 171.592C234.559 173.676 232.676 175.216 230.503 175.216C229.514 175.216 228.394 175.01 227.338 174.658C227.338 174.658 227.337 174.658 227.337 174.657L224.833 173.839ZM227.527 174.088C228.535 174.424 229.591 174.616 230.503 174.616C232.423 174.616 233.959 173.272 233.959 171.592C233.959 169.624 233.143 169 228.295 167.56C221.479 165.544 219.415 163.432 219.415 158.536C219.415 152.104 223.831 148.168 230.935 148.168C236.503 148.168 239.959 150.088 239.959 153.112C239.959 155.176 238.567 156.664 236.647 156.664C235.975 156.664 235.495 156.568 233.815 155.992C232.519 155.56 231.751 155.416 230.839 155.416C228.823 155.416 227.479 156.424 227.479 157.864C227.479 158.824 228.103 159.496 229.399 159.928L232.951 161.032C239.383 163.048 241.975 165.928 241.975 171.112C241.975 177.784 237.463 181.864 230.167 181.864C223.255 181.864 218.983 179.752 218.983 176.392C218.983 174.28 220.471 172.696 222.391 172.696C223.015 172.696 223.927 172.888 225.031 173.272L227.527 174.088ZM76.1905 181.912C67.7905 181.912 62.3185 176.392 62.3185 167.944V152.536C62.3185 149.992 63.7105 148.552 66.0625 148.552C68.4625 148.552 69.8545 150.04 69.8545 152.536V167.56C69.8545 172.12 72.1585 174.76 76.1905 174.76C80.2705 174.76 82.5265 172.216 82.5265 167.608V152.536C82.5265 149.992 83.9185 148.552 86.3185 148.552C88.6705 148.552 90.0625 149.992 90.0625 152.536V167.56C90.0625 170.776 89.5345 173.224 88.4305 175.288C86.2225 179.416 81.6145 181.912 76.1905 181.912ZM145.972 174.328H150.628C153.316 174.328 154.516 173.272 154.516 171.064C154.516 168.904 153.172 167.896 150.292 167.896H145.972V174.328ZM145.972 161.368H148.66C151.06 161.368 152.308 160.408 152.308 158.488C152.308 156.52 151.108 155.608 148.516 155.608H145.972V161.368ZM175.125 173.992H182.325C185.061 173.992 186.357 175.096 186.357 177.4C186.357 179.8 185.013 181 182.325 181H171.717C168.885 181 167.589 179.704 167.589 176.872V153.16C167.589 150.376 168.933 149.032 171.717 149.032H181.941C184.677 149.032 185.973 150.136 185.973 152.44C185.973 154.888 184.677 156.04 181.941 156.04H175.125V161.32H181.413C184.101 161.32 185.397 162.424 185.397 164.728C185.397 167.176 184.101 168.328 181.413 168.328H175.125V173.992ZM198.933 162.712H202.341C205.413 162.712 206.997 161.464 206.997 159.112C206.997 156.856 205.557 155.8 202.533 155.8H198.933V162.712Z" fill="#908F8F"/>
</svg>
