<svg width="271" height="310" viewBox="0 0 271 310" fill="none" xmlns="http://www.w3.org/2000/svg">
<path d="M19.3 0H183.5L270.5 86.7V289.9C270.5 300.6 261.8 309.2 251.2 309.2H19.2C8.6 309.2 0 300.6 0 289.9V19.3C0 8.7 8.7 0 19.3 0Z" fill="#908F8F"/>
<path d="M270.3 87.0002H203C192.3 87.0002 183.7 78.3002 183.7 67.7002V0.200195L270.3 87.0002Z" fill="#494949"/>
<path d="M47.66 174.295H56.447C61.667 174.295 64.973 173.686 68.018 172.033C73.325 169.249 76.979 162.289 76.979 154.981C76.979 147.238 73.586 140.626 67.931 137.494C64.973 135.841 61.058 135.058 55.925 135.058H41.483C36.437 135.058 34.001 137.494 34.001 142.54V186.649C34.001 191.26 36.524 193.87 40.874 193.87C45.137 193.87 47.66 191.26 47.66 186.649V174.295ZM47.66 162.463V147.325H54.185C59.84 147.325 62.711 149.848 62.711 154.894C62.711 159.853 59.579 162.463 53.837 162.463H47.66Z" fill="white"/>
<path d="M116.807 181.516C117.416 183.169 117.764 184.387 118.112 185.257C120.461 192.391 121.766 193.87 125.768 193.87C129.335 193.87 132.206 191.347 132.206 188.215C132.206 186.562 131.597 184.039 130.553 181.516C130.205 180.646 129.944 179.95 129.77 179.515L117.329 145.498L115.589 140.8C113.762 135.754 110.891 133.579 106.019 133.579C101.147 133.579 98.5373 135.58 96.3623 140.8L94.7093 145.498L82.2683 179.515C82.0073 180.124 81.7463 180.82 81.3983 181.516C80.3543 184.126 79.7453 186.475 79.7453 187.954C79.7453 191.347 82.3553 193.87 85.8353 193.87C89.6633 193.87 91.0553 192.304 93.3173 185.257C93.5783 184.387 94.0133 183.169 94.6223 181.516H116.807ZM98.7983 169.249L105.932 148.456L112.805 169.249H98.7983Z" fill="white"/>
<path d="M179.61 170.902C179.175 174.295 178.566 175.774 177.174 177.514C175.086 180.211 171.345 181.864 167.604 181.864C159.252 181.864 153.249 174.469 153.249 164.203C153.249 153.241 159.165 146.02 168.213 146.02C170.823 146.02 173.694 146.89 175.695 148.195L178.566 150.022C180.567 151.327 182.22 151.936 183.612 151.936C187.005 151.936 189.702 149.152 189.702 145.672C189.702 139.06 179.697 133.492 167.865 133.492C150.03 133.492 138.72 145.324 138.72 163.942C138.72 182.734 149.856 194.566 167.43 194.566C172.65 194.566 176.913 193.522 180.654 191.434C188.745 186.736 193.791 177.514 193.791 167.248C193.791 160.897 191.442 158.026 186.396 158.026H173.085C168.387 158.026 165.603 160.462 165.603 164.464C165.603 168.553 168.3 170.902 172.911 170.902H179.61Z" fill="white"/>
<path d="M217.561 180.298V170.032H228.958C233.83 170.032 236.179 167.944 236.179 163.507C236.179 159.331 233.83 157.33 228.958 157.33H217.561V147.76H229.915C234.874 147.76 237.223 145.672 237.223 141.235C237.223 137.059 234.874 135.058 229.915 135.058H211.384C206.338 135.058 203.902 137.494 203.902 142.54V185.518C203.902 190.651 206.251 193 211.384 193H230.611C235.483 193 237.919 190.825 237.919 186.475C237.919 182.299 235.57 180.298 230.611 180.298H217.561Z" fill="white"/>
<path fill-rule="evenodd" clip-rule="evenodd" d="M47.06 173.695H56.447C61.6203 173.695 64.8119 173.091 67.7317 171.506L67.7392 171.502C72.8014 168.846 76.379 162.125 76.379 154.981C76.379 147.402 73.0612 141.021 67.6403 138.019L67.6383 138.018C64.8054 136.435 61.0061 135.658 55.925 135.658H41.483C39.0471 135.658 37.3589 136.246 36.274 137.331C35.1891 138.416 34.601 140.104 34.601 142.54V186.649C34.601 188.849 35.2015 190.488 36.24 191.574C37.2748 192.657 38.82 193.27 40.874 193.27C42.8811 193.27 44.4047 192.659 45.4299 191.576C46.4593 190.489 47.06 188.849 47.06 186.649V173.695ZM47.06 163.063V146.725H54.185C57.0893 146.725 59.3891 147.372 60.9664 148.768C62.5573 150.177 63.311 152.257 63.311 154.894C63.311 157.506 62.4806 159.584 60.8152 160.996C59.1666 162.394 56.7879 163.063 53.837 163.063H47.06ZM117.226 180.916L117.37 181.309C117.678 182.144 117.92 182.869 118.126 183.488L118.127 183.491C118.335 184.116 118.503 184.619 118.669 185.034L118.676 185.052L118.682 185.07C119.862 188.653 120.744 190.686 121.769 191.841C122.729 192.921 123.853 193.27 125.768 193.27C129.079 193.27 131.606 190.945 131.606 188.215C131.606 186.673 131.028 184.233 129.999 181.746L129.996 181.739C129.821 181.301 129.668 180.907 129.537 180.569C129.406 180.229 129.299 179.951 129.213 179.738L129.21 179.73L116.767 145.707L116.766 145.704L115.025 141.004C114.135 138.546 113.015 136.857 111.585 135.776C110.161 134.701 108.364 134.179 106.019 134.179C103.668 134.179 101.938 134.661 100.54 135.712C99.132 136.77 97.9897 138.459 96.9226 141.015L95.2728 145.704L82.8262 179.737L82.8198 179.752C82.7502 179.914 82.6779 180.09 82.6019 180.274C82.4117 180.737 82.1984 181.255 81.9463 181.762C80.9147 184.345 80.3453 186.598 80.3453 187.954C80.3453 190.999 82.6693 193.27 85.8353 193.27C86.7557 193.27 87.4828 193.175 88.0956 192.952C88.698 192.732 89.2185 192.377 89.7113 191.812C90.7277 190.646 91.6104 188.611 92.7443 185.079C93.0116 184.189 93.4526 182.956 94.0593 181.309L94.2039 180.916H117.226ZM81.3983 181.516C81.6449 181.023 81.8478 180.53 82.0379 180.068C82.1161 179.878 82.1922 179.693 82.2683 179.515L94.7093 145.498L96.3623 140.8C98.5373 135.58 101.147 133.579 106.019 133.579C110.891 133.579 113.762 135.754 115.589 140.8L117.329 145.498L129.77 179.515C129.842 179.695 129.929 179.92 130.031 180.184C130.175 180.556 130.349 181.006 130.553 181.516C131.597 184.039 132.206 186.562 132.206 188.215C132.206 191.347 129.335 193.87 125.768 193.87C121.766 193.87 120.461 192.391 118.112 185.257C117.938 184.822 117.764 184.3 117.558 183.68C117.351 183.06 117.112 182.343 116.807 181.516H94.6223C94.0133 183.169 93.5783 184.387 93.3173 185.257C91.0553 192.304 89.6633 193.87 85.8353 193.87C82.3553 193.87 79.7453 191.347 79.7453 187.954C79.7453 186.475 80.3543 184.126 81.3983 181.516ZM97.9581 169.849L105.943 146.576L113.636 169.849H97.9581ZM98.7983 169.249H112.805L105.932 148.456L98.7983 169.249ZM180.292 170.302L180.205 170.978C179.985 172.695 179.716 173.965 179.312 175.039C178.905 176.122 178.369 176.98 177.645 177.885C175.426 180.749 171.499 182.464 167.604 182.464C158.81 182.464 152.649 174.678 152.649 164.203C152.649 158.619 154.156 153.928 156.874 150.62C159.602 147.301 163.515 145.42 168.213 145.42C170.936 145.42 173.92 146.322 176.02 147.691C176.021 147.692 176.022 147.692 176.023 147.693L178.894 149.52C180.853 150.797 182.388 151.336 183.612 151.336C186.657 151.336 189.102 148.837 189.102 145.672C189.102 142.689 186.832 139.803 182.928 137.627C179.05 135.465 173.694 134.092 167.865 134.092C159.084 134.092 151.964 137.001 147.038 142.15C142.109 147.302 139.32 154.755 139.32 163.942C139.32 173.221 142.067 180.718 146.922 185.891C151.773 191.059 158.782 193.966 167.43 193.966C172.562 193.966 176.72 192.941 180.357 190.913C188.242 186.332 193.191 177.321 193.191 167.248C193.191 164.127 192.61 161.987 191.518 160.632C190.45 159.306 188.803 158.626 186.396 158.626H173.085C170.834 158.626 169.118 159.21 167.974 160.198C166.842 161.177 166.203 162.611 166.203 164.464C166.203 166.37 166.826 167.802 167.924 168.766C169.032 169.739 170.701 170.302 172.911 170.302H180.292ZM180.654 191.434C176.913 193.522 172.65 194.566 167.43 194.566C149.856 194.566 138.72 182.734 138.72 163.942C138.72 145.324 150.03 133.492 167.865 133.492C179.697 133.492 189.702 139.06 189.702 145.672C189.702 149.152 187.005 151.936 183.612 151.936C182.22 151.936 180.567 151.327 178.566 150.022L175.695 148.195C173.694 146.89 170.823 146.02 168.213 146.02C159.165 146.02 153.249 153.241 153.249 164.203C153.249 174.469 159.252 181.864 167.604 181.864C171.345 181.864 175.086 180.211 177.174 177.514C178.481 175.88 179.098 174.477 179.528 171.502C179.556 171.309 179.583 171.109 179.61 170.902H172.911C168.3 170.902 165.603 168.553 165.603 164.464C165.603 160.462 168.387 158.026 173.085 158.026H186.396C191.442 158.026 193.791 160.897 193.791 167.248C193.791 177.514 188.745 186.736 180.654 191.434ZM216.961 180.898V169.432H228.958C231.323 169.432 232.955 168.923 233.995 167.988C235.021 167.064 235.579 165.624 235.579 163.507C235.579 161.532 235.028 160.182 234.006 159.309C232.965 158.419 231.328 157.93 228.958 157.93H216.961V147.16H229.915C232.326 147.16 233.98 146.65 235.03 145.714C236.065 144.79 236.623 143.352 236.623 141.235C236.623 139.26 236.072 137.911 235.041 137.039C233.99 136.148 232.331 135.658 229.915 135.658H211.384C208.949 135.658 207.26 136.246 206.175 137.331C205.091 138.416 204.502 140.104 204.502 142.54V185.518C204.502 188.006 205.073 189.69 206.143 190.76C207.213 191.83 208.897 192.4 211.384 192.4H230.611C232.971 192.4 234.628 191.872 235.693 190.921C236.745 189.982 237.319 188.539 237.319 186.475C237.319 184.5 236.768 183.151 235.737 182.279C234.686 181.388 233.027 180.898 230.611 180.898H216.961ZM47.66 174.295V186.649C47.66 191.26 45.137 193.87 40.874 193.87C36.524 193.87 34.001 191.26 34.001 186.649V142.54C34.001 137.494 36.437 135.058 41.483 135.058H55.925C61.058 135.058 64.973 135.841 67.931 137.494C73.586 140.626 76.979 147.238 76.979 154.981C76.979 162.289 73.325 169.249 68.018 172.033C64.973 173.686 61.667 174.295 56.447 174.295H47.66ZM47.66 162.463H53.837C59.579 162.463 62.711 159.853 62.711 154.894C62.711 149.848 59.84 147.325 54.185 147.325H47.66V162.463ZM217.561 180.298H230.611C235.57 180.298 237.919 182.299 237.919 186.475C237.919 190.825 235.483 193 230.611 193H211.384C206.251 193 203.902 190.651 203.902 185.518V142.54C203.902 137.494 206.338 135.058 211.384 135.058H229.915C234.874 135.058 237.223 137.059 237.223 141.235C237.223 145.672 234.874 147.76 229.915 147.76H217.561V157.33H228.958C233.83 157.33 236.179 159.331 236.179 163.507C236.179 167.944 233.83 170.032 228.958 170.032H217.561V180.298Z" fill="#908F8F"/>
</svg>
