<svg width="271" height="310" viewBox="0 0 271 310" fill="none" xmlns="http://www.w3.org/2000/svg">
<path d="M19.3 0H183.5L270.5 86.7V289.9C270.5 300.6 261.8 309.2 251.2 309.2H19.2C8.6 309.2 0 300.6 0 289.9V19.3C0 8.7 8.7 0 19.3 0Z" fill="#908F8F"/>
<path d="M270.3 87.0002H203C192.3 87.0002 183.7 78.3002 183.7 67.7002V0.200195L270.3 87.0002Z" fill="#494949"/>
<path d="M76.66 174.295H85.447C90.667 174.295 93.973 173.686 97.018 172.033C102.325 169.249 105.979 162.289 105.979 154.981C105.979 147.238 102.586 140.626 96.931 137.494C93.973 135.841 90.058 135.058 84.925 135.058H70.483C65.437 135.058 63.001 137.494 63.001 142.54V186.649C63.001 191.26 65.524 193.87 69.874 193.87C74.137 193.87 76.66 191.26 76.66 186.649V174.295ZM76.66 162.463V147.325H83.185C88.84 147.325 91.711 149.848 91.711 154.894C91.711 159.853 88.579 162.463 82.837 162.463H76.66Z" fill="white"/>
<path d="M115.67 185.518C115.67 190.651 118.019 193 123.152 193H136.463C144.815 193 150.47 191.434 154.994 187.693C161.432 182.473 164.912 174.208 164.912 164.029C164.912 145.846 154.211 135.058 136.115 135.058H123.152C117.932 135.058 115.67 137.32 115.67 142.54V185.518ZM129.329 180.298V147.76H134.549C145.598 147.76 150.818 152.98 150.818 164.203C150.818 170.902 148.382 175.948 143.945 178.471C141.857 179.689 138.638 180.298 134.027 180.298H129.329Z" fill="white"/>
<path d="M188.54 170.032H199.241C204.113 170.032 206.462 167.944 206.462 163.507C206.462 159.331 204.113 157.417 199.241 157.417H188.54V147.76H201.068C206.027 147.76 208.376 145.672 208.376 141.235C208.376 137.059 206.027 135.058 201.068 135.058H182.363C177.23 135.058 174.881 137.407 174.881 142.54V186.649C174.881 191.26 177.317 193.87 181.754 193.87C186.017 193.87 188.54 191.173 188.54 186.649V170.032Z" fill="white"/>
<path fill-rule="evenodd" clip-rule="evenodd" d="M76.06 173.695H85.447C90.6203 173.695 93.8119 173.091 96.7317 171.506L96.7392 171.502C101.801 168.846 105.379 162.125 105.379 154.981C105.379 147.402 102.061 141.021 96.6403 138.019L96.6383 138.018C93.8054 136.435 90.0061 135.658 84.925 135.658H70.483C68.0471 135.658 66.3589 136.246 65.274 137.331C64.1891 138.416 63.601 140.104 63.601 142.54V186.649C63.601 188.849 64.2015 190.488 65.24 191.574C66.2748 192.657 67.82 193.27 69.874 193.27C71.8811 193.27 73.4047 192.659 74.4299 191.576C75.4593 190.489 76.06 188.849 76.06 186.649V173.695ZM76.06 163.063V146.725H83.185C86.0893 146.725 88.3891 147.372 89.9664 148.768C91.5573 150.177 92.311 152.257 92.311 154.894C92.311 157.506 91.4806 159.584 89.8152 160.996C88.1666 162.394 85.7879 163.063 82.837 163.063H76.06ZM154.612 187.231L154.616 187.227C160.883 182.146 164.312 174.071 164.312 164.029C164.312 155.055 161.673 147.979 156.874 143.148C152.075 138.317 145.044 135.658 136.115 135.658H123.152C120.613 135.658 118.933 136.21 117.878 137.266C116.822 138.321 116.27 140.001 116.27 142.54V185.518C116.27 188.005 116.84 189.69 117.91 190.76C118.981 191.83 120.665 192.4 123.152 192.4H136.463C144.739 192.4 150.236 190.849 154.612 187.231ZM128.729 180.898V147.16H134.549C140.157 147.16 144.41 148.484 147.253 151.35C150.095 154.215 151.418 158.51 151.418 164.203C151.418 171.04 148.925 176.328 144.244 178.991C142.015 180.29 138.665 180.898 134.027 180.898H128.729ZM187.94 169.432H199.241C201.606 169.432 203.237 168.923 204.277 167.988C205.304 167.063 205.862 165.624 205.862 163.507C205.862 161.532 205.311 160.207 204.294 159.356C203.254 158.487 201.616 158.017 199.241 158.017H187.94V147.16H201.068C203.479 147.16 205.132 146.65 206.182 145.714C207.218 144.79 207.776 143.352 207.776 141.235C207.776 139.26 207.224 137.911 206.194 137.038C205.143 136.148 203.484 135.658 201.068 135.658H182.363C179.876 135.658 178.192 136.228 177.121 137.298C176.051 138.369 175.481 140.053 175.481 142.54V186.649C175.481 188.854 176.063 190.492 177.089 191.576C178.111 192.655 179.654 193.27 181.754 193.27C183.756 193.27 185.28 192.641 186.308 191.545C187.341 190.445 187.94 188.803 187.94 186.649V169.432ZM76.66 174.295V186.649C76.66 191.26 74.137 193.87 69.874 193.87C65.524 193.87 63.001 191.26 63.001 186.649V142.54C63.001 137.494 65.437 135.058 70.483 135.058H84.925C90.058 135.058 93.973 135.841 96.931 137.494C102.586 140.626 105.979 147.238 105.979 154.981C105.979 162.289 102.325 169.249 97.018 172.033C93.973 173.686 90.667 174.295 85.447 174.295H76.66ZM76.66 162.463H82.837C88.579 162.463 91.711 159.853 91.711 154.894C91.711 149.848 88.84 147.325 83.185 147.325H76.66V162.463ZM123.152 193C118.019 193 115.67 190.651 115.67 185.518V142.54C115.67 137.32 117.932 135.058 123.152 135.058H136.115C154.211 135.058 164.912 145.846 164.912 164.029C164.912 174.208 161.432 182.473 154.994 187.693C150.47 191.434 144.815 193 136.463 193H123.152ZM129.329 180.298H134.027C138.638 180.298 141.857 179.689 143.945 178.471C148.382 175.948 150.818 170.902 150.818 164.203C150.818 152.98 145.598 147.76 134.549 147.76H129.329V180.298ZM188.54 170.032V186.649C188.54 191.173 186.017 193.87 181.754 193.87C177.317 193.87 174.881 191.26 174.881 186.649V142.54C174.881 137.407 177.23 135.058 182.363 135.058H201.068C206.027 135.058 208.376 137.059 208.376 141.235C208.376 145.672 206.027 147.76 201.068 147.76H188.54V157.417H199.241C204.113 157.417 206.462 159.331 206.462 163.507C206.462 167.944 204.113 170.032 199.241 170.032H188.54Z" fill="#908F8F"/>
</svg>
