<svg width="271" height="310" viewBox="0 0 271 310" fill="none" xmlns="http://www.w3.org/2000/svg">
<path d="M19.3 0H183.5L270.5 86.7V289.9C270.5 300.6 261.8 309.2 251.2 309.2H19.2C8.6 309.2 0 300.6 0 289.9V19.3C0 8.7 8.7 0 19.3 0Z" fill="#908F8F"/>
<path d="M270.3 87.0002H203C192.3 87.0002 183.7 78.3002 183.7 67.7002V0.200195L270.3 87.0002Z" fill="#494949"/>
<path d="M64.66 174.295H73.447C78.667 174.295 81.973 173.686 85.018 172.033C90.325 169.249 93.979 162.289 93.979 154.981C93.979 147.238 90.586 140.626 84.931 137.494C81.973 135.841 78.058 135.058 72.925 135.058H58.483C53.437 135.058 51.001 137.494 51.001 142.54V186.649C51.001 191.26 53.524 193.87 57.874 193.87C62.137 193.87 64.66 191.26 64.66 186.649V174.295ZM64.66 162.463V147.325H71.185C76.84 147.325 79.711 149.848 79.711 154.894C79.711 159.853 76.579 162.463 70.837 162.463H64.66Z" fill="white"/>
<path d="M117.329 157.417L137.252 184.648L140.384 188.911C142.994 192.652 145.343 194.131 148.388 194.131C152.912 194.131 154.739 190.999 154.739 183.082V141.409C154.739 136.711 152.303 134.188 147.953 134.188C143.603 134.188 141.08 136.885 141.08 141.409V168.901L122.027 142.801C116.111 134.71 114.545 133.318 110.978 133.318C105.845 133.318 103.67 136.537 103.67 144.367V186.736C103.67 191.347 106.193 193.957 110.543 193.957C114.806 193.957 117.329 191.347 117.329 186.736V157.417Z" fill="white"/>
<path d="M205.531 170.902C205.096 174.295 204.487 175.774 203.095 177.514C201.007 180.211 197.266 181.864 193.525 181.864C185.173 181.864 179.17 174.469 179.17 164.203C179.17 153.241 185.086 146.02 194.134 146.02C196.744 146.02 199.615 146.89 201.616 148.195L204.487 150.022C206.488 151.327 208.141 151.936 209.533 151.936C212.926 151.936 215.623 149.152 215.623 145.672C215.623 139.06 205.618 133.492 193.786 133.492C175.951 133.492 164.641 145.324 164.641 163.942C164.641 182.734 175.777 194.566 193.351 194.566C198.571 194.566 202.834 193.522 206.575 191.434C214.666 186.736 219.712 177.514 219.712 167.248C219.712 160.897 217.363 158.026 212.317 158.026H199.006C194.308 158.026 191.524 160.462 191.524 164.464C191.524 168.553 194.221 170.902 198.832 170.902H205.531Z" fill="white"/>
<path fill-rule="evenodd" clip-rule="evenodd" d="M64.06 173.695H73.447C78.6203 173.695 81.8119 173.091 84.7317 171.506L84.7392 171.502C89.8014 168.846 93.379 162.125 93.379 154.981C93.379 147.402 90.0612 141.022 84.6403 138.019L84.6383 138.018C81.8054 136.435 78.0061 135.658 72.925 135.658H58.483C56.0471 135.658 54.3589 136.246 53.274 137.331C52.1891 138.416 51.601 140.105 51.601 142.54V186.649C51.601 188.849 52.2015 190.488 53.24 191.574C54.2748 192.657 55.82 193.27 57.874 193.27C59.8811 193.27 61.4047 192.659 62.4299 191.576C63.4593 190.489 64.06 188.849 64.06 186.649V173.695ZM64.06 163.063V146.725H71.185C74.0893 146.725 76.3891 147.372 77.9664 148.768C79.5573 150.177 80.311 152.257 80.311 154.894C80.311 157.506 79.4806 159.584 77.8152 160.996C76.1666 162.394 73.7879 163.063 70.837 163.063H64.06ZM116.729 155.581L137.735 184.293L137.736 184.294L140.872 188.562L140.876 188.568C142.157 190.405 143.345 191.641 144.549 192.42C145.74 193.191 146.974 193.531 148.388 193.531C149.451 193.531 150.313 193.347 151.013 192.985C151.708 192.626 152.28 192.074 152.74 191.276C153.679 189.649 154.139 187.024 154.139 183.082V141.409C154.139 139.158 153.556 137.521 152.541 136.45C151.532 135.383 150.012 134.788 147.953 134.788C145.905 134.788 144.358 135.42 143.321 136.515C142.279 137.614 141.68 139.256 141.68 141.409V170.741L121.543 143.156M137.252 184.648L117.329 157.417V186.736C117.329 191.347 114.806 193.957 110.543 193.957C106.193 193.957 103.67 191.347 103.67 186.736V144.367C103.67 136.537 105.845 133.318 110.978 133.318C114.545 133.318 116.111 134.71 122.027 142.801L141.08 168.901V141.409C141.08 136.885 143.603 134.188 147.953 134.188C152.303 134.188 154.739 136.711 154.739 141.409V183.082C154.739 190.999 152.912 194.131 148.388 194.131C145.343 194.131 142.994 192.652 140.384 188.911L137.252 184.648ZM116.729 155.581V157.417ZM113.181 134.229C112.525 134.002 111.831 133.918 110.978 133.918C108.552 133.918 106.943 134.667 105.899 136.239C104.815 137.869 104.27 140.48 104.27 144.367V186.736C104.27 188.936 104.871 190.575 105.909 191.661C106.944 192.744 108.489 193.357 110.543 193.357C112.55 193.357 114.074 192.746 115.099 191.663C116.128 190.576 116.729 188.936 116.729 186.736V157.417M113.181 134.229C113.834 134.456 114.485 134.838 115.23 135.48ZM115.23 135.48C116.745 136.786 118.575 139.097 121.543 143.156ZM206.212 170.302L206.126 170.979C205.906 172.695 205.637 173.965 205.233 175.04C204.826 176.122 204.29 176.98 203.566 177.885C201.347 180.749 197.42 182.464 193.525 182.464C184.731 182.464 178.57 174.678 178.57 164.203C178.57 158.619 180.077 153.928 182.795 150.62C185.523 147.301 189.436 145.42 194.134 145.42C196.857 145.42 199.841 146.322 201.941 147.691C201.942 147.692 201.943 147.692 201.943 147.693L204.814 149.52C206.774 150.798 208.309 151.336 209.533 151.336C212.578 151.336 215.023 148.838 215.023 145.672C215.023 142.689 212.753 139.803 208.849 137.627C204.971 135.465 199.615 134.092 193.786 134.092C185.005 134.092 177.885 137.002 172.959 142.15C168.029 147.302 165.241 154.755 165.241 163.942C165.241 173.221 167.988 180.718 172.843 185.891C177.694 191.059 184.703 193.966 193.351 193.966C198.483 193.966 202.641 192.942 206.278 190.913C214.163 186.333 219.112 177.321 219.112 167.248C219.112 164.127 218.531 161.987 217.439 160.632C216.371 159.306 214.724 158.626 212.317 158.626H199.006C196.755 158.626 195.039 159.21 193.895 160.199C192.763 161.178 192.124 162.611 192.124 164.464C192.124 166.37 192.747 167.802 193.844 168.766C194.953 169.739 196.621 170.302 198.832 170.302H206.212ZM206.575 191.434C202.834 193.522 198.571 194.566 193.351 194.566C175.777 194.566 164.641 182.734 164.641 163.942C164.641 145.324 175.951 133.492 193.786 133.492C205.618 133.492 215.623 139.06 215.623 145.672C215.623 149.152 212.926 151.936 209.533 151.936C208.141 151.936 206.488 151.327 204.487 150.022L201.616 148.195C199.615 146.89 196.744 146.02 194.134 146.02C185.086 146.02 179.17 153.241 179.17 164.203C179.17 174.469 185.173 181.864 193.525 181.864C197.266 181.864 201.007 180.211 203.095 177.514C204.402 175.88 205.018 174.477 205.449 171.502C205.477 171.309 205.504 171.109 205.531 170.902H198.832C194.221 170.902 191.524 168.553 191.524 164.464C191.524 160.462 194.308 158.026 199.006 158.026H212.317C217.363 158.026 219.712 160.897 219.712 167.248C219.712 177.514 214.666 186.736 206.575 191.434ZM64.66 174.295V186.649C64.66 191.26 62.137 193.87 57.874 193.87C53.524 193.87 51.001 191.26 51.001 186.649V142.54C51.001 137.494 53.437 135.058 58.483 135.058H72.925C78.058 135.058 81.973 135.841 84.931 137.494C90.586 140.626 93.979 147.238 93.979 154.981C93.979 162.289 90.325 169.249 85.018 172.033C81.973 173.686 78.667 174.295 73.447 174.295H64.66ZM64.66 162.463H70.837C76.579 162.463 79.711 159.853 79.711 154.894C79.711 149.848 76.84 147.325 71.185 147.325H64.66V162.463Z" fill="#908F8F"/>
</svg>
