<svg width="271" height="310" viewBox="0 0 271 310" fill="none" xmlns="http://www.w3.org/2000/svg">
<path d="M19.3 0H183.5L270.5 86.7V289.9C270.5 300.6 261.8 309.2 251.2 309.2H19.2C8.6 309.2 0 300.6 0 289.9V19.3C0 8.7 8.7 0 19.3 0Z" fill="#908F8F"/>
<path d="M270.3 87.0002H203C192.3 87.0002 183.7 78.3002 183.7 67.7002V0.200195L270.3 87.0002Z" fill="#494949"/>
<path d="M72.66 169.858L87.45 188.65C90.582 192.652 92.148 193.783 94.497 193.783C98.412 193.783 101.196 190.999 101.196 187.171C101.196 185.17 100.152 183.256 97.542 180.385C96.672 179.341 95.889 178.471 95.28 177.688L87.798 168.814C96.498 166.9 100.587 161.767 100.587 152.893C100.587 146.281 97.281 140.539 91.713 137.494C88.668 135.841 84.405 135.058 77.793 135.058H66.483C61.437 135.058 59.001 137.494 59.001 142.54V186.649C59.001 191.26 61.524 193.87 65.874 193.87C70.137 193.87 72.66 191.26 72.66 186.649V169.858ZM72.66 159.853V147.325H79.185C84.666 147.325 87.276 149.239 87.276 153.328C87.276 157.591 84.405 159.853 78.837 159.853H72.66Z" fill="white"/>
<path d="M145.8 181.516C146.409 183.169 146.757 184.387 147.105 185.257C149.454 192.391 150.759 193.87 154.761 193.87C158.328 193.87 161.199 191.347 161.199 188.215C161.199 186.562 160.59 184.039 159.546 181.516C159.198 180.646 158.937 179.95 158.763 179.515L146.322 145.498L144.582 140.8C142.755 135.754 139.884 133.579 135.012 133.579C130.14 133.579 127.53 135.58 125.355 140.8L123.702 145.498L111.261 179.515C111 180.124 110.739 180.82 110.391 181.516C109.347 184.126 108.738 186.475 108.738 187.954C108.738 191.347 111.348 193.87 114.828 193.87C118.656 193.87 120.048 192.304 122.31 185.257C122.571 184.387 123.006 183.169 123.615 181.516H145.8ZM127.791 169.249L134.925 148.456L141.798 169.249H127.791Z" fill="white"/>
<path d="M184.115 169.858L198.905 188.65C202.037 192.652 203.603 193.783 205.952 193.783C209.867 193.783 212.651 190.999 212.651 187.171C212.651 185.17 211.607 183.256 208.997 180.385C208.127 179.341 207.344 178.471 206.735 177.688L199.253 168.814C207.953 166.9 212.042 161.767 212.042 152.893C212.042 146.281 208.736 140.539 203.168 137.494C200.123 135.841 195.86 135.058 189.248 135.058H177.938C172.892 135.058 170.456 137.494 170.456 142.54V186.649C170.456 191.26 172.979 193.87 177.329 193.87C181.592 193.87 184.115 191.26 184.115 186.649V169.858ZM184.115 159.853V147.325H190.64C196.121 147.325 198.731 149.239 198.731 153.328C198.731 157.591 195.86 159.853 190.292 159.853H184.115Z" fill="white"/>
<path fill-rule="evenodd" clip-rule="evenodd" d="M72.06 168.126L87.9225 188.28C89.4851 190.277 90.6162 191.502 91.62 192.232C92.5912 192.938 93.4456 193.183 94.497 193.183C98.0858 193.183 100.596 190.663 100.596 187.171C100.596 185.41 99.6921 183.642 97.098 180.789L97.0893 180.779L97.081 180.769C96.7605 180.385 96.4449 180.016 96.1431 179.663C95.6505 179.088 95.1946 178.555 94.8137 178.066L86.699 168.442L87.6691 168.228C91.93 167.291 94.9876 165.582 96.9868 163.088C98.9862 160.594 99.987 157.24 99.987 152.893C99.987 146.489 96.7908 140.955 91.4257 138.021C88.5142 136.441 84.3736 135.658 77.793 135.658H66.483C64.0471 135.658 62.3589 136.246 61.274 137.331C60.1891 138.416 59.601 140.104 59.601 142.54V186.649C59.601 188.849 60.2015 190.488 61.24 191.574C62.2748 192.657 63.82 193.27 65.874 193.27C67.8811 193.27 69.4047 192.659 70.4299 191.576C71.4593 190.489 72.06 188.849 72.06 186.649V168.126ZM95.28 177.688C95.6553 178.171 96.0967 178.686 96.5839 179.255C96.8872 179.61 97.2082 179.985 97.542 180.385C100.152 183.256 101.196 185.17 101.196 187.171C101.196 190.999 98.412 193.783 94.497 193.783C92.148 193.783 90.582 192.652 87.45 188.65L72.66 169.858V186.649C72.66 191.26 70.137 193.87 65.874 193.87C61.524 193.87 59.001 191.26 59.001 186.649V142.54C59.001 137.494 61.437 135.058 66.483 135.058H77.793C84.405 135.058 88.668 135.841 91.713 137.494C97.281 140.539 100.587 146.281 100.587 152.893C100.587 161.541 96.7037 166.636 88.4541 168.661C88.2384 168.714 88.0197 168.765 87.798 168.814L95.28 177.688ZM72.06 160.453V146.725H79.185C81.975 146.725 84.1526 147.208 85.6427 148.311C87.1702 149.441 87.876 151.145 87.876 153.328C87.876 155.606 87.1006 157.429 85.5126 158.663C83.9509 159.876 81.6877 160.453 78.837 160.453H72.06ZM146.219 180.916L146.363 181.309C146.671 182.144 146.913 182.869 147.119 183.488L147.12 183.49C147.329 184.116 147.497 184.619 147.663 185.034L147.67 185.052L147.675 185.069C148.855 188.653 149.737 190.686 150.762 191.84C151.722 192.921 152.847 193.27 154.761 193.27C158.072 193.27 160.599 190.945 160.599 188.215C160.599 186.673 160.021 184.233 158.992 181.746L158.989 181.739C158.814 181.301 158.661 180.907 158.53 180.569L158.464 180.399C158.363 180.136 158.277 179.915 158.206 179.738L158.203 179.73L145.76 145.706L145.759 145.704L144.018 141.004C143.128 138.545 142.008 136.856 140.578 135.776C139.154 134.701 137.357 134.179 135.012 134.179C132.661 134.179 130.931 134.661 129.533 135.712C128.125 136.77 126.983 138.459 125.916 141.015L124.266 145.704L111.819 179.736L111.813 179.751C111.743 179.914 111.671 180.09 111.595 180.274C111.405 180.736 111.192 181.255 110.939 181.762C109.908 184.345 109.338 186.598 109.338 187.954C109.338 190.999 111.662 193.27 114.828 193.27C115.749 193.27 116.476 193.175 117.089 192.952C117.691 192.732 118.212 192.377 118.704 191.812C119.721 190.646 120.604 188.611 121.737 185.079C122.005 184.189 122.446 182.956 123.052 181.309L123.197 180.916H146.219ZM110.391 181.516C110.638 181.023 110.841 180.53 111.031 180.068C111.109 179.878 111.185 179.693 111.261 179.515L123.702 145.498L125.355 140.8C127.53 135.58 130.14 133.579 135.012 133.579C139.884 133.579 142.755 135.754 144.582 140.8L146.322 145.498L158.763 179.515C158.836 179.695 158.923 179.92 159.024 180.184C159.169 180.556 159.343 181.006 159.546 181.516C160.59 184.039 161.199 186.562 161.199 188.215C161.199 191.347 158.328 193.87 154.761 193.87C150.759 193.87 149.454 192.391 147.105 185.257C146.931 184.822 146.757 184.3 146.551 183.68C146.344 183.06 146.105 182.343 145.8 181.516H123.615C123.006 183.169 122.571 184.387 122.31 185.257C120.048 192.304 118.656 193.87 114.828 193.87C111.348 193.87 108.738 191.347 108.738 187.954C108.738 186.475 109.347 184.126 110.391 181.516ZM126.951 169.849L134.936 146.576L142.629 169.849H126.951ZM127.791 169.249H141.798L134.925 148.456L127.791 169.249ZM183.515 168.126L199.377 188.279L199.378 188.28C200.94 190.277 202.071 191.502 203.075 192.232C204.046 192.938 204.901 193.183 205.952 193.183C209.541 193.183 212.051 190.663 212.051 187.171C212.051 185.41 211.147 183.642 208.553 180.789L208.544 180.779L208.536 180.769C208.216 180.385 207.9 180.016 207.598 179.663C207.106 179.088 206.65 178.555 206.269 178.066L198.154 168.442L199.124 168.228C203.385 167.291 206.443 165.582 208.442 163.088C210.441 160.594 211.442 157.24 211.442 152.893C211.442 146.489 208.246 140.955 202.881 138.021C199.969 136.441 195.829 135.658 189.248 135.658H177.938C175.502 135.658 173.814 136.246 172.729 137.331C171.644 138.416 171.056 140.104 171.056 142.54V186.649C171.056 188.849 171.657 190.488 172.695 191.574C173.73 192.657 175.275 193.27 177.329 193.27C179.336 193.27 180.86 192.659 181.885 191.576C182.915 190.489 183.515 188.849 183.515 186.649V168.126ZM199.909 168.661C208.159 166.636 212.042 161.541 212.042 152.893C212.042 146.281 208.736 140.539 203.168 137.494C200.123 135.841 195.86 135.058 189.248 135.058H177.938C172.892 135.058 170.456 137.494 170.456 142.54V186.649C170.456 191.26 172.979 193.87 177.329 193.87C181.592 193.87 184.115 191.26 184.115 186.649V169.858L198.905 188.65C202.037 192.652 203.603 193.783 205.952 193.783C209.867 193.783 212.651 190.999 212.651 187.171C212.651 185.17 211.607 183.256 208.997 180.385C208.663 179.985 208.342 179.61 208.039 179.255C207.552 178.686 207.11 178.171 206.735 177.688L199.253 168.814C199.475 168.765 199.694 168.714 199.909 168.661ZM183.515 160.453V146.725H190.64C193.43 146.725 195.608 147.208 197.098 148.311C198.625 149.441 199.331 151.145 199.331 153.328C199.331 155.606 198.556 157.429 196.968 158.663C195.406 159.876 193.143 160.453 190.292 160.453H183.515ZM72.66 159.853H78.837C84.405 159.853 87.276 157.591 87.276 153.328C87.276 149.239 84.666 147.325 79.185 147.325H72.66V159.853ZM184.115 159.853H190.292C195.86 159.853 198.731 157.591 198.731 153.328C198.731 149.239 196.121 147.325 190.64 147.325H184.115V159.853Z" fill="#908F8F"/>
</svg>
