<svg width="271" height="310" viewBox="0 0 271 310" fill="none" xmlns="http://www.w3.org/2000/svg">
<path d="M19.3 0H183.5L270.5 86.7V289.9C270.5 300.6 261.8 309.2 251.2 309.2H19.2C8.6 309.2 0 300.6 0 289.9V19.3C0 8.7 8.7 0 19.3 0Z" fill="#908F8F"/>
<path d="M270.3 87H203C192.3 87 183.7 78.2999 183.7 67.7V0.199951L270.3 87Z" fill="#494949"/>
<path d="M128.6 164.6C129.9 163.2 131.6 162.5 133.7 162.5C138.9 162.5 143 161.3 146.2 158.9C149.3 156.5 150.9 152.7 150.9 147.6C150.9 143.7 149.5 140.4 146.7 137.8C143.9 135.2 140.3 133.9 136.1 133.9C131.8 133.9 128 135.4 124.7 138.3C122.8 140 120.9 140.9 118.8 140.9C117.3 140.9 116 140.4 114.8 139.5C112.8 137.9 111.7 136.1 111.7 134C111.7 132.2 112.4 130.6 113.9 129.1C116.7 126.2 120 123.9 123.8 122.3C127.6 120.7 131.7 119.9 136 119.9C141.3 119.9 146.2 121.1 150.6 123.5C155 125.9 158.5 129.3 161.1 133.6C163.7 137.9 165 142.6 165 147.7C165 155.2 162.8 161.2 158.5 165.6C154.2 170 148.5 172.7 141.3 173.8C140.9 174 140.7 174.2 140.7 174.4V178.8C140.7 180.8 140 182.5 138.7 183.9C137.4 185.3 135.7 186 133.6 186C131.6 186 129.9 185.3 128.5 183.9C127.2 182.5 126.5 180.8 126.5 178.8V169.9C126.6 167.7 127.3 166 128.6 164.6ZM127.9 211.5C126.7 210.3 126.1 208.5 126.1 206.3V204.3C126.1 202 126.7 200.3 127.9 199.1C129.1 197.9 130.9 197.3 133.1 197.3H134.6C136.9 197.3 138.6 197.9 139.8 199.1C141 200.3 141.6 202.1 141.6 204.3V206.3C141.6 208.6 141 210.3 139.8 211.5C138.6 212.7 136.8 213.3 134.6 213.3H133.1C130.8 213.3 129.1 212.7 127.9 211.5Z" fill="white" stroke="white" stroke-width="2" stroke-miterlimit="10"/>
</svg>
