<svg width="271" height="310" viewBox="0 0 271 310" fill="none" xmlns="http://www.w3.org/2000/svg">
<path d="M19.3 0H183.5L270.5 86.7V289.9C270.5 300.6 261.8 309.2 251.2 309.2H19.2C8.6 309.2 0 300.6 0 289.9V19.3C0 8.7 8.7 0 19.3 0Z" fill="#908F8F"/>
<path d="M270.3 87.0002H203C192.3 87.0002 183.7 78.3002 183.7 67.7002V0.200195L270.3 87.0002Z" fill="#494949"/>
<path d="M89.0558 173.947L98.3648 187.084L100.192 189.694C102.106 192.565 104.455 194.044 106.978 194.044C110.893 194.044 113.677 191.347 113.677 187.606C113.677 185.518 112.372 182.908 109.153 178.819C108.457 177.862 107.587 176.731 106.63 175.426L96.8858 162.028L103.672 152.632C104.629 151.327 105.499 150.196 106.282 149.152C109.414 145.15 110.806 142.54 110.806 140.452C110.806 137.146 107.5 134.014 103.933 134.014C101.236 134.014 100.018 134.971 95.9288 140.452L88.7948 150.109L82.0088 140.452C78.3548 135.319 76.8758 134.014 74.2658 134.014C70.6118 134.014 67.2188 137.059 67.2188 140.365C67.2188 142.279 68.7848 145.324 71.7428 149.152C72.8738 150.718 73.7438 151.936 74.3528 152.632L81.0518 162.115L71.3078 175.513C70.2638 176.992 69.3938 178.21 68.6978 178.993C65.2178 183.43 64.1738 185.518 64.1738 187.867C64.1738 191.347 67.1318 194.131 70.8728 194.131C73.6568 194.131 75.3968 192.826 78.4418 188.737L79.5728 187.171L89.0558 173.947Z" fill="white"/>
<path d="M136.492 180.298V141.322C136.492 136.711 133.969 134.101 129.706 134.101C125.356 134.101 122.833 136.711 122.833 141.322V185.518C122.833 190.651 125.182 193 130.315 193H149.803C154.675 193 157.024 190.999 157.024 186.823C157.024 182.386 154.675 180.298 149.803 180.298H136.492Z" fill="white"/>
<path d="M175.382 178.993C173.381 178.297 171.728 177.949 170.597 177.949C167.117 177.949 164.42 180.82 164.42 184.648C164.42 190.738 172.163 194.566 184.691 194.566C197.915 194.566 206.093 187.171 206.093 175.078C206.093 165.682 201.395 160.462 189.737 156.808L183.299 154.807C180.95 154.024 179.819 152.806 179.819 151.066C179.819 148.456 182.255 146.629 185.909 146.629C187.562 146.629 188.954 146.89 191.303 147.673C194.348 148.717 195.218 148.891 196.436 148.891C199.916 148.891 202.439 146.194 202.439 142.453C202.439 136.972 196.175 133.492 186.083 133.492C173.207 133.492 165.203 140.626 165.203 152.284C165.203 161.158 168.944 164.986 181.298 168.64C190.085 171.25 191.564 172.381 191.564 175.948C191.564 178.993 188.78 181.429 185.3 181.429C183.647 181.429 181.733 181.081 179.906 180.472L175.382 178.993Z" fill="white"/>
<path fill-rule="evenodd" clip-rule="evenodd" d="M89.0587 172.914L98.8564 186.74L100.691 189.361C102.535 192.127 104.72 193.444 106.978 193.444C110.583 193.444 113.077 190.995 113.077 187.606C113.077 185.747 111.904 183.285 108.681 179.19L108.674 179.181L108.668 179.172C108.314 178.686 107.93 178.175 107.513 177.618C107.093 177.058 106.638 176.452 106.146 175.781L106.145 175.779L96.1448 162.029L103.188 152.277C103.84 151.389 104.454 150.577 105.024 149.823C105.293 149.467 105.553 149.124 105.802 148.792L105.809 148.782C107.366 146.793 108.472 145.173 109.187 143.806C109.902 142.439 110.206 141.363 110.206 140.452C110.206 138.999 109.475 137.539 108.296 136.431C107.119 135.324 105.543 134.614 103.933 134.614C103.293 134.614 102.778 134.671 102.3 134.822C101.825 134.971 101.357 135.222 100.828 135.646C99.7453 136.514 98.4625 138.06 96.4107 140.81C96.4104 140.81 96.4101 140.811 96.4097 140.811L88.7827 151.135L81.52 140.8C81.5197 140.8 81.5193 140.799 81.519 140.799C79.6888 138.228 78.446 136.68 77.36 135.768C76.3178 134.893 75.4329 134.614 74.2658 134.614C72.6026 134.614 70.9804 135.31 69.7735 136.396C68.5644 137.484 67.8188 138.919 67.8188 140.365C67.8188 141.179 68.1589 142.317 68.9051 143.766C69.6442 145.202 70.7523 146.889 72.2176 148.785L72.2235 148.793L72.2292 148.801C72.3143 148.919 72.3977 149.034 72.4794 149.147C73.4963 150.556 74.2627 151.618 74.8044 152.237L74.8249 152.261L81.79 162.12L71.7955 175.863C70.7654 177.322 69.8792 178.564 69.1587 179.378C65.685 183.808 64.7738 185.748 64.7738 187.867C64.7738 190.98 67.4258 193.531 70.8728 193.531C72.1493 193.531 73.1555 193.239 74.209 192.481C75.2923 191.701 76.4422 190.418 77.958 188.382C77.9589 188.381 77.9597 188.38 77.9606 188.379L79.0852 186.822L89.0587 172.914ZM79.5728 187.171L78.4418 188.737C75.3968 192.826 73.6568 194.131 70.8728 194.131C67.1318 194.131 64.1738 191.347 64.1738 187.867C64.1738 185.518 65.2178 183.43 68.6978 178.993C69.3938 178.21 70.2638 176.992 71.3078 175.513L81.0518 162.115L74.3528 152.632C73.7915 151.991 73.0086 150.906 72.0039 149.514C71.9185 149.395 71.8314 149.275 71.7428 149.152C68.7848 145.324 67.2188 142.279 67.2188 140.365C67.2188 137.059 70.6118 134.014 74.2658 134.014C76.8758 134.014 78.3548 135.319 82.0088 140.452L88.7948 150.109L95.9288 140.452C100.018 134.971 101.236 134.014 103.933 134.014C107.5 134.014 110.806 137.146 110.806 140.452C110.806 142.54 109.414 145.15 106.282 149.152C106.03 149.488 105.769 149.833 105.499 150.19C104.93 150.942 104.321 151.747 103.672 152.632L96.8858 162.028L106.63 175.426C107.108 176.079 107.565 176.688 107.989 177.253C108.413 177.819 108.805 178.341 109.153 178.819C112.372 182.908 113.677 185.518 113.677 187.606C113.677 191.347 110.893 194.044 106.978 194.044C104.455 194.044 102.106 192.565 100.192 189.694L98.3648 187.084L89.0558 173.947L79.5728 187.171ZM135.892 180.898V141.322C135.892 139.123 135.291 137.482 134.262 136.395C133.237 135.312 131.713 134.701 129.706 134.701C127.652 134.701 126.107 135.314 125.072 136.397C124.033 137.484 123.433 139.123 123.433 141.322V185.518C123.433 188.006 124.003 189.69 125.073 190.76C126.143 191.83 127.828 192.4 130.315 192.4H149.803C152.173 192.4 153.81 191.911 154.851 191.022C155.872 190.149 156.424 188.799 156.424 186.823C156.424 184.707 155.866 183.267 154.839 182.343C153.799 181.407 152.168 180.898 149.803 180.898H135.892ZM175.185 179.56C173.208 178.872 171.629 178.549 170.597 178.549C167.49 178.549 165.02 181.108 165.02 184.648C165.02 187.384 166.743 189.694 170.122 191.352C173.51 193.015 178.476 193.966 184.691 193.966C191.195 193.966 196.387 192.149 199.948 188.913C203.501 185.684 205.493 180.983 205.493 175.078C205.493 170.488 204.35 166.99 201.84 164.19C199.313 161.371 195.344 159.194 189.559 157.381C189.559 157.381 189.558 157.381 189.558 157.381L183.109 155.377C181.882 154.967 180.909 154.424 180.239 153.704C179.555 152.969 179.219 152.081 179.219 151.066C179.219 149.554 179.933 148.271 181.139 147.385C182.332 146.509 183.989 146.029 185.909 146.029C187.648 146.029 189.107 146.309 191.493 147.104L191.498 147.106C194.537 148.148 195.326 148.291 196.436 148.291C199.547 148.291 201.839 145.902 201.839 142.453C201.839 139.987 200.446 137.922 197.757 136.443C195.05 134.954 191.072 134.092 186.083 134.092C179.752 134.092 174.689 135.845 171.216 138.963C167.75 142.074 165.803 146.6 165.803 152.284C165.803 156.632 166.717 159.629 169.046 161.999C171.411 164.406 175.306 166.242 181.468 168.065C185.839 169.363 188.511 170.323 190.076 171.448C190.882 172.027 191.421 172.666 191.748 173.434C192.069 174.189 192.164 175.021 192.164 175.948C192.164 179.397 189.034 182.029 185.3 182.029C183.571 182.029 181.593 181.667 179.718 181.042C179.718 181.042 179.717 181.042 179.717 181.041L175.185 179.56ZM179.906 180.472C181.733 181.081 183.647 181.429 185.3 181.429C188.78 181.429 191.564 178.993 191.564 175.948C191.564 172.381 190.085 171.25 181.298 168.64C168.944 164.986 165.203 161.158 165.203 152.284C165.203 140.626 173.207 133.492 186.083 133.492C196.175 133.492 202.439 136.972 202.439 142.453C202.439 146.194 199.916 148.891 196.436 148.891C195.218 148.891 194.348 148.717 191.303 147.673C188.954 146.89 187.562 146.629 185.909 146.629C182.255 146.629 179.819 148.456 179.819 151.066C179.819 152.806 180.95 154.024 183.299 154.807L189.737 156.808C201.395 160.462 206.093 165.682 206.093 175.078C206.093 187.171 197.915 194.566 184.691 194.566C172.163 194.566 164.42 190.738 164.42 184.648C164.42 180.82 167.117 177.949 170.597 177.949C171.728 177.949 173.381 178.297 175.382 178.993L179.906 180.472ZM136.492 180.298H149.803C154.675 180.298 157.024 182.386 157.024 186.823C157.024 190.999 154.675 193 149.803 193H130.315C125.182 193 122.833 190.651 122.833 185.518V141.322C122.833 136.711 125.356 134.101 129.706 134.101C133.969 134.101 136.492 136.711 136.492 141.322V180.298Z" fill="#908F8F"/>
</svg>
