<svg width="271" height="310" viewBox="0 0 271 310" fill="none" xmlns="http://www.w3.org/2000/svg">
<path d="M19.3 0H183.5L270.5 86.7V289.9C270.5 300.6 261.8 309.2 251.2 309.2H19.2C8.6 309.2 0 300.6 0 289.9V19.3C0 8.7 8.7 0 19.3 0Z" fill="#908F8F"/>
<path d="M270.3 87.0002H203C192.3 87.0002 183.7 78.3002 183.7 67.7002V0.200195L270.3 87.0002Z" fill="#494949"/>
<path d="M60.0558 173.947L69.3648 187.084L71.1918 189.694C73.1058 192.565 75.4548 194.044 77.9778 194.044C81.8928 194.044 84.6768 191.347 84.6768 187.606C84.6768 185.518 83.3718 182.908 80.1528 178.819C79.4568 177.862 78.5868 176.731 77.6298 175.426L67.8858 162.028L74.6718 152.632C75.6288 151.327 76.4988 150.196 77.2818 149.152C80.4138 145.15 81.8058 142.54 81.8058 140.452C81.8058 137.146 78.4998 134.014 74.9328 134.014C72.2358 134.014 71.0178 134.971 66.9288 140.452L59.7948 150.109L53.0088 140.452C49.3548 135.319 47.8758 134.014 45.2658 134.014C41.6118 134.014 38.2188 137.059 38.2188 140.365C38.2188 142.279 39.7848 145.324 42.7428 149.152C43.8738 150.718 44.7438 151.936 45.3528 152.632L52.0518 162.115L42.3078 175.513C41.2638 176.992 40.3938 178.21 39.6978 178.993C36.2178 183.43 35.1738 185.518 35.1738 187.867C35.1738 191.347 38.1318 194.131 41.8728 194.131C44.6568 194.131 46.3968 192.826 49.4418 188.737L50.5728 187.171L60.0558 173.947Z" fill="white"/>
<path d="M107.492 180.298V141.322C107.492 136.711 104.969 134.101 100.706 134.101C96.3559 134.101 93.8329 136.711 93.8329 141.322V185.518C93.8329 190.651 96.1819 193 101.315 193H120.803C125.675 193 128.024 190.999 128.024 186.823C128.024 182.386 125.675 180.298 120.803 180.298H107.492Z" fill="white"/>
<path d="M146.382 178.993C144.381 178.297 142.728 177.949 141.597 177.949C138.117 177.949 135.42 180.82 135.42 184.648C135.42 190.738 143.163 194.566 155.691 194.566C168.915 194.566 177.093 187.171 177.093 175.078C177.093 165.682 172.395 160.462 160.737 156.808L154.299 154.807C151.95 154.024 150.819 152.806 150.819 151.066C150.819 148.456 153.255 146.629 156.909 146.629C158.562 146.629 159.954 146.89 162.303 147.673C165.348 148.717 166.218 148.891 167.436 148.891C170.916 148.891 173.439 146.194 173.439 142.453C173.439 136.972 167.175 133.492 157.083 133.492C144.207 133.492 136.203 140.626 136.203 152.284C136.203 161.158 139.944 164.986 152.298 168.64C161.085 171.25 162.564 172.381 162.564 175.948C162.564 178.993 159.78 181.429 156.3 181.429C154.647 181.429 152.733 181.081 150.906 180.472L146.382 178.993Z" fill="white"/>
<path d="M209.822 173.947L219.131 187.084L220.958 189.694C222.872 192.565 225.221 194.044 227.744 194.044C231.659 194.044 234.443 191.347 234.443 187.606C234.443 185.518 233.138 182.908 229.919 178.819C229.223 177.862 228.353 176.731 227.396 175.426L217.652 162.028L224.438 152.632C225.395 151.327 226.265 150.196 227.048 149.152C230.18 145.15 231.572 142.54 231.572 140.452C231.572 137.146 228.266 134.014 224.699 134.014C222.002 134.014 220.784 134.971 216.695 140.452L209.561 150.109L202.775 140.452C199.121 135.319 197.642 134.014 195.032 134.014C191.378 134.014 187.985 137.059 187.985 140.365C187.985 142.279 189.551 145.324 192.509 149.152C193.64 150.718 194.51 151.936 195.119 152.632L201.818 162.115L192.074 175.513C191.03 176.992 190.16 178.21 189.464 178.993C185.984 183.43 184.94 185.518 184.94 187.867C184.94 191.347 187.898 194.131 191.639 194.131C194.423 194.131 196.163 192.826 199.208 188.737L200.339 187.171L209.822 173.947Z" fill="white"/>
<path fill-rule="evenodd" clip-rule="evenodd" d="M60.0587 172.914L69.8564 186.74L71.6912 189.361C73.5352 192.127 75.7199 193.444 77.9778 193.444C81.5828 193.444 84.0768 190.995 84.0768 187.606C84.0768 185.747 82.9045 183.285 79.6814 179.19L79.6743 179.181L79.6676 179.172C79.3142 178.686 78.9304 178.175 78.5127 177.618C78.0927 177.058 77.6383 176.452 77.146 175.781L77.1446 175.779L67.1448 162.029L74.188 152.277C74.8396 151.389 75.4536 150.577 76.024 149.823C76.2932 149.467 76.5527 149.124 76.8018 148.792L76.8092 148.782C78.3662 146.793 79.4718 145.173 80.1867 143.806C80.902 142.439 81.2058 141.363 81.2058 140.452C81.2058 138.999 80.4751 137.539 79.296 136.431C78.1187 135.324 76.5428 134.614 74.9328 134.614C74.2931 134.614 73.7778 134.671 73.2995 134.822C72.8249 134.971 72.357 135.222 71.8282 135.646C70.7453 136.514 69.4625 138.06 67.4107 140.81C67.4104 140.81 67.4101 140.811 67.4097 140.811L59.7827 151.135L52.52 140.8C52.5197 140.8 52.5193 140.799 52.519 140.799C50.6888 138.228 49.446 136.68 48.36 135.768C47.3178 134.893 46.4329 134.614 45.2658 134.614C43.6026 134.614 41.9804 135.31 40.7735 136.396C39.5644 137.484 38.8188 138.919 38.8188 140.365C38.8188 141.179 39.1589 142.317 39.9051 143.766C40.6442 145.202 41.7523 146.889 43.2176 148.785L43.2235 148.793L43.2292 148.801C43.3143 148.919 43.3977 149.034 43.4794 149.147C44.4963 150.556 45.2627 151.618 45.8044 152.237L45.8249 152.261L52.79 162.12L42.7955 175.863C41.7654 177.322 40.8792 178.564 40.1587 179.378C36.685 183.808 35.7738 185.748 35.7738 187.867C35.7738 190.98 38.4258 193.531 41.8728 193.531C43.1493 193.531 44.1555 193.239 45.209 192.481C46.2923 191.701 47.4422 190.418 48.958 188.382C48.9589 188.381 48.9597 188.38 48.9606 188.379L50.0852 186.822L60.0587 172.914ZM50.5728 187.171L49.4418 188.737C46.3968 192.826 44.6568 194.131 41.8728 194.131C38.1318 194.131 35.1738 191.347 35.1738 187.867C35.1738 185.518 36.2178 183.43 39.6978 178.993C40.3938 178.21 41.2638 176.992 42.3078 175.513L52.0518 162.115L45.3528 152.632C44.7915 151.991 44.0086 150.906 43.0039 149.514C42.9185 149.395 42.8314 149.275 42.7428 149.152C39.7848 145.324 38.2188 142.279 38.2188 140.365C38.2188 137.059 41.6118 134.014 45.2658 134.014C47.8758 134.014 49.3548 135.319 53.0088 140.452L59.7948 150.109L66.9288 140.452C71.0178 134.971 72.2358 134.014 74.9328 134.014C78.4998 134.014 81.8058 137.146 81.8058 140.452C81.8058 142.54 80.4138 145.15 77.2818 149.152C77.0298 149.488 76.7689 149.833 76.4989 150.19C75.9299 150.942 75.3209 151.747 74.6718 152.632L67.8858 162.028L77.6298 175.426C78.1083 176.079 78.565 176.688 78.9891 177.253C79.4133 177.819 79.8048 178.341 80.1528 178.819C83.3718 182.908 84.6768 185.518 84.6768 187.606C84.6768 191.347 81.8928 194.044 77.9778 194.044C75.4548 194.044 73.1058 192.565 71.1918 189.694L69.3648 187.084L60.0558 173.947L50.5728 187.171ZM106.892 180.898V141.322C106.892 139.123 106.291 137.482 105.262 136.395C104.237 135.312 102.713 134.701 100.706 134.701C98.652 134.701 97.1067 135.314 96.0719 136.397C95.0335 137.484 94.4329 139.123 94.4329 141.322V185.518C94.4329 188.006 95.0031 189.69 96.0733 190.76C97.1435 191.83 98.8275 192.4 101.315 192.4H120.803C123.173 192.4 124.81 191.911 125.851 191.022C126.872 190.149 127.424 188.799 127.424 186.823C127.424 184.707 126.866 183.267 125.839 182.343C124.799 181.407 123.168 180.898 120.803 180.898H106.892ZM146.185 179.56C144.208 178.872 142.629 178.549 141.597 178.549C138.49 178.549 136.02 181.108 136.02 184.648C136.02 187.384 137.743 189.694 141.122 191.352C144.51 193.015 149.476 193.966 155.691 193.966C162.195 193.966 167.387 192.149 170.948 188.913C174.501 185.684 176.493 180.983 176.493 175.078C176.493 170.488 175.35 166.99 172.84 164.19C170.313 161.371 166.344 159.194 160.559 157.381C160.559 157.381 160.558 157.381 160.558 157.381L154.109 155.377C152.882 154.967 151.909 154.424 151.239 153.704C150.555 152.969 150.219 152.081 150.219 151.066C150.219 149.554 150.933 148.271 152.139 147.385C153.332 146.509 154.989 146.029 156.909 146.029C158.648 146.029 160.107 146.309 162.493 147.104L162.498 147.106C165.537 148.148 166.326 148.291 167.436 148.291C170.547 148.291 172.839 145.902 172.839 142.453C172.839 139.987 171.446 137.922 168.757 136.443C166.05 134.954 162.072 134.092 157.083 134.092C150.752 134.092 145.689 135.845 142.216 138.963C138.75 142.074 136.803 146.6 136.803 152.284C136.803 156.632 137.717 159.629 140.046 161.999C142.411 164.406 146.306 166.242 152.468 168.065C156.839 169.363 159.511 170.323 161.076 171.448C161.882 172.027 162.421 172.666 162.748 173.434C163.069 174.189 163.164 175.021 163.164 175.948C163.164 179.397 160.034 182.029 156.3 182.029C154.571 182.029 152.593 181.667 150.718 181.042C150.718 181.042 150.717 181.042 150.717 181.041L146.185 179.56ZM150.906 180.472C152.733 181.081 154.647 181.429 156.3 181.429C159.78 181.429 162.564 178.993 162.564 175.948C162.564 172.381 161.085 171.25 152.298 168.64C139.944 164.986 136.203 161.158 136.203 152.284C136.203 140.626 144.207 133.492 157.083 133.492C167.175 133.492 173.439 136.972 173.439 142.453C173.439 146.194 170.916 148.891 167.436 148.891C166.218 148.891 165.348 148.717 162.303 147.673C159.954 146.89 158.562 146.629 156.909 146.629C153.255 146.629 150.819 148.456 150.819 151.066C150.819 152.806 151.95 154.024 154.299 154.807L160.737 156.808C172.395 160.462 177.093 165.682 177.093 175.078C177.093 187.171 168.915 194.566 155.691 194.566C143.163 194.566 135.42 190.738 135.42 184.648C135.42 180.82 138.117 177.949 141.597 177.949C142.728 177.949 144.381 178.297 146.382 178.993L150.906 180.472ZM209.824 172.914L219.622 186.74L221.457 189.361C223.301 192.127 225.486 193.444 227.744 193.444C231.349 193.444 233.843 190.995 233.843 187.606C233.843 185.747 232.67 183.285 229.447 179.19L229.44 179.181L229.433 179.172C229.08 178.686 228.696 178.175 228.279 177.618C227.859 177.058 227.404 176.452 226.912 175.781L226.91 175.779L216.911 162.029L223.954 152.277C224.605 151.389 225.219 150.578 225.789 149.824C226.059 149.468 226.318 149.125 226.568 148.792L226.575 148.782C228.132 146.793 229.238 145.173 229.952 143.806C230.668 142.439 230.972 141.363 230.972 140.452C230.972 138.999 230.241 137.539 229.062 136.431C227.884 135.324 226.309 134.614 224.699 134.614C224.059 134.614 223.544 134.671 223.065 134.822C222.591 134.971 222.123 135.222 221.594 135.646C220.511 136.514 219.228 138.06 217.176 140.81C217.176 140.81 217.176 140.811 217.175 140.811L209.548 151.135L202.286 140.8C202.285 140.799 202.285 140.799 202.284 140.798C200.454 138.228 199.212 136.68 198.126 135.768C197.084 134.893 196.199 134.614 195.032 134.614C193.368 134.614 191.746 135.31 190.539 136.396C189.33 137.484 188.585 138.919 188.585 140.365C188.585 141.179 188.925 142.317 189.671 143.766C190.41 145.202 191.518 146.889 192.983 148.785L192.989 148.793L192.995 148.801C193.08 148.919 193.164 149.035 193.246 149.148C194.262 150.556 195.029 151.618 195.57 152.237L195.591 152.261L202.556 162.12L192.564 175.859C192.563 175.86 192.562 175.861 192.561 175.862C191.531 177.322 190.645 178.564 189.924 179.378C186.451 183.808 185.54 185.748 185.54 187.867C185.54 190.98 188.192 193.531 191.639 193.531C192.915 193.531 193.921 193.239 194.975 192.481C196.058 191.701 197.208 190.417 198.724 188.382C198.725 188.381 198.726 188.38 198.726 188.379L199.851 186.822L199.852 186.82L209.824 172.914ZM199.208 188.737C196.163 192.826 194.423 194.131 191.639 194.131C187.898 194.131 184.94 191.347 184.94 187.867C184.94 185.518 185.984 183.43 189.464 178.993C190.16 178.21 191.03 176.992 192.074 175.513L201.818 162.115L195.119 152.632C194.557 151.991 193.774 150.906 192.769 149.513C192.684 149.395 192.597 149.275 192.509 149.152C189.551 145.324 187.985 142.279 187.985 140.365C187.985 137.059 191.378 134.014 195.032 134.014C197.642 134.014 199.121 135.319 202.775 140.452L209.561 150.109L216.695 140.452C220.784 134.971 222.002 134.014 224.699 134.014C228.266 134.014 231.572 137.146 231.572 140.452C231.572 142.54 230.18 145.15 227.048 149.152C226.795 149.488 226.534 149.834 226.264 150.191C225.695 150.943 225.086 151.747 224.438 152.632L217.652 162.028L227.396 175.426C227.874 176.079 228.331 176.688 228.755 177.253C229.179 177.819 229.571 178.341 229.919 178.819C233.138 182.908 234.443 185.518 234.443 187.606C234.443 191.347 231.659 194.044 227.744 194.044C225.221 194.044 222.872 192.565 220.958 189.694L219.131 187.084L209.822 173.947L200.339 187.171L199.208 188.737ZM107.492 180.298H120.803C125.675 180.298 128.024 182.386 128.024 186.823C128.024 190.999 125.675 193 120.803 193H101.315C96.1819 193 93.8329 190.651 93.8329 185.518V141.322C93.8329 136.711 96.3559 134.101 100.706 134.101C104.969 134.101 107.492 136.711 107.492 141.322V180.298Z" fill="#908F8F"/>
</svg>
