<svg width="271" height="310" viewBox="0 0 271 310" fill="none" xmlns="http://www.w3.org/2000/svg">
<path d="M19.3 0H183.5L270.5 86.7V289.9C270.5 300.6 261.8 309.2 251.2 309.2H19.2C8.6 309.2 0 300.6 0 289.9V19.3C0 8.7 8.7 0 19.3 0Z" fill="#908F8F"/>
<path d="M270.3 87.0002H203C192.3 87.0002 183.7 78.3002 183.7 67.7002V0.200195L270.3 87.0002Z" fill="#494949"/>
<path d="M90.6608 180.298L109.105 156.025C110.41 154.285 111.28 153.067 111.628 152.632L114.412 148.717C116.935 145.15 117.718 143.497 117.718 141.844C117.718 137.929 114.586 135.058 110.323 135.058H81.3518C76.3928 135.058 74.0438 137.146 74.0438 141.583C74.0438 145.759 76.3928 147.76 81.3518 147.76H100.318L81.7868 172.033C81.0908 172.903 80.3078 174.034 79.3508 175.426C77.8718 177.427 76.9148 178.732 76.4798 179.341C74.1308 182.473 73.1738 184.387 73.1738 186.214C73.1738 190.216 76.2188 193 80.5688 193H111.454C116.413 193 118.762 190.912 118.762 186.475C118.762 182.299 116.413 180.298 111.454 180.298H90.6608Z" fill="white"/>
<path d="M128.01 186.649C128.01 191.26 130.533 193.87 134.883 193.87C139.146 193.87 141.669 191.26 141.669 186.649V141.322C141.669 136.798 139.146 134.101 134.883 134.101C130.533 134.101 128.01 136.798 128.01 141.322V186.649Z" fill="white"/>
<path d="M166.301 174.295H175.088C180.308 174.295 183.614 173.686 186.659 172.033C191.966 169.249 195.62 162.289 195.62 154.981C195.62 147.238 192.227 140.626 186.572 137.494C183.614 135.841 179.699 135.058 174.566 135.058H160.124C155.078 135.058 152.642 137.494 152.642 142.54V186.649C152.642 191.26 155.165 193.87 159.515 193.87C163.778 193.87 166.301 191.26 166.301 186.649V174.295ZM166.301 162.463V147.325H172.826C178.481 147.325 181.352 149.848 181.352 154.894C181.352 159.853 178.22 162.463 172.478 162.463H166.301Z" fill="white"/>
<path fill-rule="evenodd" clip-rule="evenodd" d="M89.4514 180.898L108.625 155.665C108.625 155.664 108.626 155.664 108.626 155.663C109.243 154.841 109.768 154.127 110.188 153.557C110.635 152.949 110.962 152.505 111.148 152.271L113.922 148.371C113.922 148.37 113.922 148.371 113.922 148.371C116.455 144.789 117.118 143.282 117.118 141.844C117.118 138.308 114.304 135.658 110.323 135.658H81.3518C78.941 135.658 77.2876 136.168 76.2376 137.104C75.2018 138.028 74.6438 139.467 74.6438 141.583C74.6438 143.558 75.1954 144.907 76.226 145.78C77.2772 146.67 78.9363 147.16 81.3518 147.16H101.531L82.2555 172.408C81.5758 173.258 80.8057 174.369 79.8453 175.766L79.8394 175.774L79.8333 175.783C78.3536 177.785 77.3997 179.086 76.9681 179.69L76.96 179.701C74.6105 182.834 73.7738 184.605 73.7738 186.214C73.7738 188.055 74.4703 189.588 75.6455 190.666C76.8246 191.746 78.5219 192.4 80.5688 192.4H111.454C113.865 192.4 115.518 191.89 116.568 190.954C117.604 190.03 118.162 188.592 118.162 186.475C118.162 184.5 117.61 183.151 116.58 182.278C115.528 181.388 113.869 180.898 111.454 180.898H89.4514ZM114.412 148.717L111.628 152.632C111.448 152.856 111.13 153.289 110.685 153.893C110.267 154.462 109.737 155.182 109.105 156.025L90.6608 180.298H111.454C116.413 180.298 118.762 182.299 118.762 186.475C118.762 190.912 116.413 193 111.454 193H80.5688C76.2188 193 73.1738 190.216 73.1738 186.214C73.1738 184.387 74.1308 182.473 76.4798 179.341C76.9148 178.732 77.8718 177.427 79.3508 175.426C80.3078 174.034 81.0908 172.903 81.7868 172.033L100.318 147.76H81.3518C76.3928 147.76 74.0438 145.759 74.0438 141.583C74.0438 137.146 76.3928 135.058 81.3518 135.058H110.323C114.586 135.058 117.718 137.929 117.718 141.844C117.718 143.497 116.935 145.15 114.412 148.717ZM130.249 191.574C131.283 192.657 132.829 193.27 134.883 193.27C136.89 193.27 138.413 192.659 139.439 191.576C140.468 190.489 141.069 188.849 141.069 186.649V141.322C141.069 139.169 140.469 137.526 139.437 136.426C138.409 135.331 136.884 134.701 134.883 134.701C132.834 134.701 131.288 135.333 130.25 136.428C129.209 137.527 128.61 139.169 128.61 141.322V186.649C128.61 188.849 129.21 190.488 130.249 191.574ZM165.701 173.695H175.088C180.261 173.695 183.452 173.091 186.372 171.506L186.38 171.502C191.442 168.846 195.02 162.125 195.02 154.981C195.02 147.402 191.702 141.021 186.281 138.019L186.279 138.018C183.446 136.435 179.647 135.658 174.566 135.658H160.124C157.688 135.658 155.999 136.246 154.915 137.331C153.83 138.416 153.242 140.104 153.242 142.54V186.649C153.242 188.849 153.842 190.488 154.881 191.574C155.915 192.657 157.461 193.27 159.515 193.27C161.522 193.27 163.045 192.659 164.07 191.576C165.1 190.489 165.701 188.849 165.701 186.649V173.695ZM165.701 163.063V146.725H172.826C175.73 146.725 178.03 147.371 179.607 148.768C181.198 150.177 181.952 152.257 181.952 154.894C181.952 157.506 181.121 159.584 179.456 160.996C177.807 162.394 175.428 163.063 172.478 163.063H165.701ZM134.883 193.87C130.533 193.87 128.01 191.26 128.01 186.649V141.322C128.01 136.798 130.533 134.101 134.883 134.101C139.146 134.101 141.669 136.798 141.669 141.322V186.649C141.669 191.26 139.146 193.87 134.883 193.87ZM166.301 174.295V186.649C166.301 191.26 163.778 193.87 159.515 193.87C155.165 193.87 152.642 191.26 152.642 186.649V142.54C152.642 137.494 155.078 135.058 160.124 135.058H174.566C179.699 135.058 183.614 135.841 186.572 137.494C192.227 140.626 195.62 147.238 195.62 154.981C195.62 162.289 191.966 169.249 186.659 172.033C183.614 173.686 180.308 174.295 175.088 174.295H166.301ZM166.301 162.463H172.478C178.22 162.463 181.352 159.853 181.352 154.894C181.352 149.848 178.481 147.325 172.826 147.325H166.301V162.463Z" fill="#908F8F"/>
</svg>
