<?xml version="1.0" encoding="utf-8"?>
<!-- Generator: Adobe Illustrator 23.0.0, SVG Export Plug-In . SVG Version: 6.00 Build 0)  -->
<svg version="1.1" id="Слой_1" xmlns="http://www.w3.org/2000/svg" xmlns:xlink="http://www.w3.org/1999/xlink" x="0px" y="0px"
	 width="129.5px" height="90.7px" viewBox="0 0 129.5 90.7" enable-background="new 0 0 129.5 90.7" xml:space="preserve">
<g>
	<path fill="#110F0F" d="M44.7,18.1C42.6,7.8,33.5,0,22.6,0C10.1,0,0,10.1,0,22.6C0,35,10.1,45.2,22.6,45.2c10.9,0,20-7.8,22.1-18.1
		h84.8v-9H44.7z M22.6,36.2C15.1,36.2,9,30.1,9,22.6C9,15.1,15.1,9,22.6,9s13.6,6.1,13.6,13.6C36.2,30.1,30.1,36.2,22.6,36.2z"/>
	<path fill="#110F0F" d="M84.5,45.5c-10.7,0-19.7,7.5-22,17.5h-58v9h57.8c1.9,10.6,11.1,18.6,22.2,18.6c11.1,0,20.4-8.1,22.2-18.6
		h22.7v-9h-22.9C104.3,53,95.3,45.5,84.5,45.5z M84.5,81.7C77,81.7,71,75.6,71,68.1c0-7.5,6.1-13.6,13.6-13.6s13.6,6.1,13.6,13.6
		C98.1,75.6,92,81.7,84.5,81.7z"/>
</g>
</svg>
