<svg xmlns="http://www.w3.org/2000/svg" viewBox="0 0 29.6 36"><defs><style>.cls-1{fill:red;}</style></defs><title>awwwards-red</title><g id="Слой_2" data-name="Слой 2"><g id="Слой_1-2" data-name="Слой 1"><g id="_05a_profile-copy-2" data-name="05a_profile-copy-2"><path id="awwward-logo-sign" class="cls-1" d="M29.5,13.1l.1,9.8a2.35,2.35,0,0,1-1,2.2l-5.9,3.4V36l-7.4-3.8L7.9,36V26.2A2.51,2.51,0,0,1,9.1,24L20,18.1l-4.4-2.3,7-3.8a2.42,2.42,0,0,0,1.1-2.2V8.1l4,2.9A3.69,3.69,0,0,1,29.5,13.1ZM8.2,23.1a2.89,2.89,0,0,0-1.3,2.2V28L1.4,25.1A2.71,2.71,0,0,1,0,22.9V13.1a3,3,0,0,1,1.6-2.2L7.9,7.5V.1l7.3,3.7L22.7,0V9.8c0,.8-1.2,1.8-2,2.2L8.9,18l4.5,2.3Z"/></g></g></g></svg>