<svg xmlns="http://www.w3.org/2000/svg" xmlns:xlink="http://www.w3.org/1999/xlink" viewBox="0 0 15.26 17.24"><defs><style>.cls-1{fill:none;}.cls-2{clip-path:url(#clip-path);}</style><clipPath id="clip-path"><rect class="cls-1" width="15.26" height="17.24"/></clipPath></defs><title>clutch-black</title><g id="Слой_2" data-name="Слой 2"><g id="Слой_1-2" data-name="Слой 1"><g class="cls-2"><path d="M11.91,12.22a4.86,4.86,0,0,1-3.28,1.22A4.69,4.69,0,0,1,3.81,8.59,4.58,4.58,0,0,1,8.63,3.82,5,5,0,0,1,11.94,5l.61.52,2.7-2.7-.67-.61A8.83,8.83,0,0,0,8.63,0,8.32,8.32,0,0,0,0,8.56a8.47,8.47,0,0,0,8.63,8.67,8.73,8.73,0,0,0,6-2.26l.65-.61-2.74-2.69Z"/><path d="M8.5,5.74A2.89,2.89,0,1,1,5.61,8.63,2.89,2.89,0,0,1,8.5,5.74"/></g></g></g></svg>