<svg xmlns="http://www.w3.org/2000/svg" viewBox="0 0 23.01 20"><title>comment-black</title><g id="Слой_2" data-name="Слой 2"><g id="Слой_1-2" data-name="Слой 1"><path id="Shape_9_copy_9" data-name="Shape 9 copy 9" d="M21.47,4.15a10.37,10.37,0,0,0-4.18-3,15.55,15.55,0,0,0-11.56,0,10.42,10.42,0,0,0-4.19,3A6.55,6.55,0,0,0,0,8.33,6.37,6.37,0,0,0,1.16,12a9.46,9.46,0,0,0,3.18,2.86,8.39,8.39,0,0,1-.33,1q-.19.47-.35.77a5.28,5.28,0,0,1-.42.66,6.16,6.16,0,0,1-.4.51l-.44.5-.4.45-.1.12L1.81,19l-.08.12a.26.26,0,0,0-.06.12.35.35,0,0,1,0,.13.17.17,0,0,0,0,.16h0a.67.67,0,0,0,.2.36A.51.51,0,0,0,2.2,20h.06a9.79,9.79,0,0,0,1.46-.29,13.94,13.94,0,0,0,5.91-3.15,17.24,17.24,0,0,0,1.86.1,14.76,14.76,0,0,0,5.78-1.11,10.35,10.35,0,0,0,4.18-3A6.43,6.43,0,0,0,21.47,4.15ZM20,11.65a9.18,9.18,0,0,1-3.62,2.44,13.17,13.17,0,0,1-4.9.91,14.46,14.46,0,0,1-1.67-.1l-.73-.08-.55.5A12.58,12.58,0,0,1,5,17.54a9.34,9.34,0,0,0,.9-2.24L6.27,14,5.15,13.4a7.87,7.87,0,0,1-2.59-2.28,4.8,4.8,0,0,1-.92-2.78A5,5,0,0,1,3,5,9.21,9.21,0,0,1,6.61,2.57a13.74,13.74,0,0,1,9.8,0A9.25,9.25,0,0,1,20,5a4.78,4.78,0,0,1,0,6.64Z"/></g></g></svg>