<svg xmlns="http://www.w3.org/2000/svg" viewBox="0 0 512 512"><defs><style>.cls-1{fill:#fff;}</style></defs><title>link-white</title><g id="Слой_2" data-name="Слой 2"><g id="Слой_1-2" data-name="Слой 1"><path class="cls-1" d="M30.75,481.25a105,105,0,0,0,148.49,0L295,365.54c-40.87,4.74-65.52-9-73.75-11.1l-84.38,84.38a45,45,0,1,1-63.64-63.64l132.3-132.3c17.12-17.12,46.08-17.56,63.64,0a43.78,43.78,0,0,1,3.68,4.59c6.33-.61,12.37.58,17.54-4.59l30.55-30.55c-3-4-5.68-8.21-9.34-11.87-40.67-40.68-108.62-39.87-148.49,0L30.75,332.75A105,105,0,0,0,30.75,481.25Z"/><path class="cls-1" d="M481.25,30.75a105,105,0,0,0-148.49,0L222.06,141.44c40.87-4.74,65.52,9,73.75,11.1l79.37-79.36a45,45,0,1,1,63.64,63.64L335.94,239.7l-24.4,24.4c-17.12,17.13-46.08,17.56-63.64,0a43.34,43.34,0,0,1-3.68-4.58c-6.33.61-12.37-.59-17.54,4.58l-30.55,30.55c3,4,5.68,8.21,9.34,11.88,40.67,40.68,108.62,39.87,148.49,0L481.25,179.25A105,105,0,0,0,481.25,30.75Z"/></g></g></svg>