<svg xmlns="http://www.w3.org/2000/svg" viewBox="0 0 20.01 20"><title>calendar-black</title><g id="Слой_2" data-name="Слой 2"><g id="Слой_1-2" data-name="Слой 1"><path id="Shape_10_copy_9" data-name="Shape 10 copy 9" d="M17.66,1.56h-.94V0H15.16V1.56H4.85V0H3.28V1.56H2.35A2.35,2.35,0,0,0,0,3.91V17.65A2.35,2.35,0,0,0,2.34,20H17.66A2.35,2.35,0,0,0,20,17.65V3.91A2.35,2.35,0,0,0,17.66,1.56Zm.78,16.09a.78.78,0,0,1-.78.78H2.34a.78.78,0,0,1-.78-.78V7.34H18.45Zm0-11.87H1.56V3.91a.78.78,0,0,1,.78-.78h.94V4.69H4.85V3.12H15.16V4.69h1.56V3.12h.94a.78.78,0,0,1,.78.78V5.78ZM3,9H4.53v1.56H3ZM6.1,9H7.66v1.56H6.1V9ZM9.22,9h1.56v1.56H9.22Zm3.13,0h1.56v1.56H12.35Zm3.13,0H17v1.56H15.48ZM3,12.1H4.53v1.56H3Zm3.13,0H7.66v1.56H6.1V12.1Zm3.13,0h1.56v1.56H9.22Zm3.13,0h1.56v1.56H12.35ZM3,15.23H4.53v1.56H3V15.23Zm3.13,0H7.66v1.56H6.1V15.23Zm3.13,0h1.56v1.56H9.22Zm3.13,0h1.56v1.56H12.35Zm3.13-3.12H17v1.56H15.48Z"/></g></g></svg>