<svg xmlns="http://www.w3.org/2000/svg" viewBox="0 0 64 64"><defs><style>.cls-1{fill:red;}</style></defs><title>dribbble-red</title><g id="Слой_2" data-name="Слой 2"><g id="Слой_1-2" data-name="Слой 1"><g id="Canvas"><g id="dribbble-b"><g id="Group"><g id="Vector"><path id="path0_fill" data-name="path0 fill" class="cls-1" d="M32,0A32,32,0,1,0,64,32,32,32,0,0,0,32,0ZM60,32a46.08,46.08,0,0,0-20.4-1c-.85-2-1.73-3.87-2.62-5.68A41.9,41.9,0,0,0,53.41,14,27.87,27.87,0,0,1,60,32ZM50.62,11.15A37.86,37.86,0,0,1,35.12,21.7,139,139,0,0,0,24.77,5a27.65,27.65,0,0,1,25.86,6.17ZM20.8,6.36a136.2,136.2,0,0,1,10.46,16.7A88.27,88.27,0,0,1,4.55,26.53,28.08,28.08,0,0,1,20.8,6.36ZM4,32c0-.49.05-1,.07-1.46.75,0,1.67,0,2.76,0a88.26,88.26,0,0,0,26.31-3.87q1.25,2.53,2.47,5.27C22.17,36,14.38,46.24,11.43,50.92A27.86,27.86,0,0,1,4,32ZM14.36,53.72c2.19-3.81,9.33-14.38,22.79-18.13a104,104,0,0,1,6.35,21.92,27.84,27.84,0,0,1-29.13-3.79Zm32.85,1.76a108.9,108.9,0,0,0-6.06-20.75,43.65,43.65,0,0,1,18.52,1.33A28,28,0,0,1,47.21,55.48Z"/></g></g></g></g></g></g></svg>