<svg xmlns="http://www.w3.org/2000/svg" viewBox="0 0 52 96.16"><defs><style>.cls-1{fill:#fff;}</style></defs><title>facebook-white</title><g id="Слой_2" data-name="Слой 2"><g id="Слой_1-2" data-name="Слой 1"><g id="Слой_2-2" data-name="Слой 2"><g id="Слой_1-2-2" data-name="Слой 1-2"><g id="Слой_2-2-2" data-name="Слой 2-2"><g id="Слой_1-2-2-2" data-name="Слой 1-2-2"><g id="Canvas"><g id="facebook"><g id="Group"><g id="Vector"><path id="path0_fill" data-name="path0 fill" class="cls-1" d="M50,0H37.55c-14,0-23,9.28-23,23.66v10.9H2a2,2,0,0,0-2,2v15.8a2,2,0,0,0,2,2H14.49v39.8a2,2,0,0,0,2,2H32.81a2,2,0,0,0,2-2V54.29H49.42a2,2,0,0,0,2-2V36.52a2,2,0,0,0-2-2H34.76v-9.2c0-4.44,1.06-6.7,6.85-6.7H50a2,2,0,0,0,2-2V2A2,2,0,0,0,50,0Z"/></g></g></g></g></g></g></g></g></g></g></svg>