<svg xmlns="http://www.w3.org/2000/svg" viewBox="0 0 51.97 96.12"><title>facebook-black</title><g id="Слой_2" data-name="Слой 2"><g id="Слой_1-2" data-name="Слой 1"><g id="Canvas"><g id="facebook"><g id="Group"><g id="Vector"><path id="path0_fill" data-name="path0 fill" d="M50,0,37.55,0c-14,0-23.05,9.28-23.05,23.66V34.56H2a2,2,0,0,0-2,2v15.8a2,2,0,0,0,2,2H14.49V94.16a2,2,0,0,0,2,2H32.81a2,2,0,0,0,2-2V54.29H49.42a2,2,0,0,0,2-2V36.52a2,2,0,0,0-2-2H34.76V25.32c0-4.44,1.06-6.7,6.85-6.7H50a2,2,0,0,0,2-2V2A2,2,0,0,0,50,0Z"/></g></g></g></g></g></g></svg>