<svg width="21" height="20" viewBox="0 0 21 20" fill="none" xmlns="http://www.w3.org/2000/svg">
<path fill-rule="evenodd" clip-rule="evenodd" d="M19.9188 1.49877C19.766 1.16632 19.5012 1 19.1233 1H1.87642C1.49934 1 1.23368 1.16632 1.08112 1.49877C0.928341 1.84809 0.991394 2.14622 1.27007 2.39355L7.91301 8.69599V14.9088C7.91301 15.1302 7.99859 15.3224 8.16894 15.4843L11.6187 18.7564C11.7803 18.9188 11.9821 19 12.2252 19C12.3325 19 12.4448 18.9786 12.562 18.9357C12.9124 18.7909 13.0877 18.5397 13.0877 18.1819V8.69599L19.7307 2.39355C20.0091 2.14622 20.0714 1.84809 19.9188 1.49877Z" stroke="black" stroke-width="2"/>
</svg>
