<svg xmlns="http://www.w3.org/2000/svg" viewBox="0 0 7.35 10.35"><defs><style>.cls-1{fill-opacity:0;}.cls-2{fill:#e7130f;}</style></defs><title>fire-red</title><g id="Слой_2" data-name="Слой 2"><g id="Слой_1-2" data-name="Слой 1"><rect class="cls-1" width="7.35" height="10.35"/><rect class="cls-1" width="7.35" height="10.35"/><path class="cls-2" d="M6.16,4.06A3,3,0,0,1,5.93,0,3.23,3.23,0,0,0,3.52,3.11C3.4,4.46,4.43,5.38,3.28,6,2.23,6.43,1,5.33,1.6,2.9A5.24,5.24,0,0,0,0,6.67a3.53,3.53,0,0,0,3.76,3.67,3.59,3.59,0,0,0,3.59-3.6A3.87,3.87,0,0,0,6.16,4.06"/></g></g></svg>