<svg xmlns="http://www.w3.org/2000/svg" viewBox="0 0 512 512"><defs><style>.cls-1{fill:red;}</style></defs><title>instagram-red</title><g id="Слой_2" data-name="Слой 2"><g id="Слой_1-2" data-name="Слой 1"><g id="Canvas"><g id="instagram-b"><g id="Group"><g id="Group-2" data-name="Group"><g id="Vector"><path id="path0_fill" data-name="path0 fill" class="cls-1" d="M373.66,0H138.34C62.06,0,0,62.06,0,138.34V373.66C0,449.94,62.06,512,138.34,512H373.66C449.94,512,512,449.94,512,373.66V138.34C512,62.06,449.94,0,373.66,0Zm97,373.66a97.09,97.09,0,0,1-97,97H138.34a97.09,97.09,0,0,1-97-97V138.34a97.09,97.09,0,0,1,97-97H373.66a97.09,97.09,0,0,1,97,97V373.66Z"/></g></g></g><g id="Group-3" data-name="Group"><g id="Group-4" data-name="Group"><g id="Vector-2" data-name="Vector"><path id="path1_fill" data-name="path1 fill" class="cls-1" d="M370.59,238.14A114.79,114.79,0,1,0,256.77,369.81a116.37,116.37,0,0,0,17.08-1.26,114.81,114.81,0,0,0,96.73-130.41ZM267.79,327.63a73.44,73.44,0,1,1,61.88-83.42A72.94,72.94,0,0,1,267.79,327.63Z"/></g></g></g><g id="Group-5" data-name="Group"><g id="Group-6" data-name="Group"><g id="Vector-3" data-name="Vector"><path id="path2_fill" data-name="path2 fill" class="cls-1" d="M400,112a20.68,20.68,0,1,0,6.06,14.63A20.83,20.83,0,0,0,400,112Z"/></g></g></g></g></g></g></g></svg>