<svg xmlns="http://www.w3.org/2000/svg" viewBox="0 0 512 451.47"><defs><style>.cls-1{fill:red;}</style></defs><title>quote-red</title><g id="Слой_2" data-name="Слой 2"><g id="Capa_1" data-name="Capa 1"><path class="cls-1" d="M205.69,89.64c12.8-5.37,18.17-20.65,12.39-33L197.84,14.06a24.69,24.69,0,0,0-32.22-12C130.52,17,100.37,36.37,76.41,59.91c-29.33,27.67-49.15,59.47-59.89,94.58C5.78,190,0,238.34,0,299.88v126.8a24.85,24.85,0,0,0,24.78,24.78H187.1a24.85,24.85,0,0,0,24.78-24.78V264.36a24.85,24.85,0,0,0-24.78-24.78H109.45c.83-41.72,10.74-75.17,28.91-100.37C153.24,119,175.54,102.45,205.69,89.64Z"/><path class="cls-1" d="M497.29,89.64c12.8-5.37,18.17-20.65,12.39-33L489.44,14.48a24.69,24.69,0,0,0-32.22-12c-34.69,14.87-64.44,34.28-88.8,57.41-29.33,28.09-49.56,59.89-60.31,95q-16.11,52-16.1,145v126.8a24.85,24.85,0,0,0,24.78,24.78H479.12a24.85,24.85,0,0,0,24.78-24.78V264.36a24.85,24.85,0,0,0-24.78-24.78H401.06c.83-41.72,10.74-75.17,28.91-100.37C444.84,119,467.14,102.45,497.29,89.64Z"/></g></g></svg>