<svg xmlns="http://www.w3.org/2000/svg" viewBox="0 0 300 261.2"><title>telegram-black</title><g id="Слой_2" data-name="Слой 2"><g id="Layer_1" data-name="Layer 1"><g id="_Группа_" data-name="&lt;Группа&gt;"><path id="_Составной_контур_" data-name="&lt;Составной контур&gt;" d="M5.3,125.24,74.42,151l26.76,86A8.14,8.14,0,0,0,114.1,241l38.53-31.41a11.5,11.5,0,0,1,14-.39l69.5,50.46a8.15,8.15,0,0,0,12.76-4.93L299.82,9.82A8.15,8.15,0,0,0,288.91.56L5.22,110A8.15,8.15,0,0,0,5.3,125.24Zm91.57,12.07L232,54.1a2.35,2.35,0,0,1,2.84,3.73L123.31,161.47a23.11,23.11,0,0,0-7.16,13.83l-3.8,28.15a3.49,3.49,0,0,1-6.82.49L90.93,152.61A13.6,13.6,0,0,1,96.87,137.31Z"/></g></g></g></svg>