<svg xmlns="http://www.w3.org/2000/svg" viewBox="0 0 512 512"><title>time-black</title><g id="Слой_2" data-name="Слой 2"><g id="Слой_1-2" data-name="Слой 1"><g id="Слой_2-2" data-name="Слой 2"><g id="Capa_1" data-name="Capa 1"><path d="M256,0C114.84,0,0,114.84,0,256S114.84,512,256,512,512,397.16,512,256,397.16,0,256,0Zm0,457.53c-111.12,0-201.53-90.4-201.53-201.53S144.88,54.47,256,54.47,457.53,144.87,457.53,256,367.12,457.53,256,457.53Z"/><path d="M389.42,248.1h-115V109.77a21.08,21.08,0,0,0-42.16,0h0v159.4a21.08,21.08,0,0,0,21.08,21.08H389.42a21.08,21.08,0,0,0,0-42.16Z"/></g></g></g></g></svg>