<svg xmlns="http://www.w3.org/2000/svg" viewBox="0 0 612 497.04"><defs><style>.cls-1{fill:red;}</style></defs><title>twitter-red</title><g id="Слой_2" data-name="Слой 2"><g id="Слой_1-2" data-name="Слой 1"><g id="Слой_2-2" data-name="Слой 2"><g id="Слой_1-2-2" data-name="Слой 1-2"><g id="Canvas"><g id="twitter"><g id="Group"><g id="Group-2"><g id="Vector"><path id="path0_fill" data-name="path0 fill" class="cls-1" d="M612,58.75a250.71,250.71,0,0,1-72.09,19.77A126.07,126.07,0,0,0,595.09,9.11a253.1,253.1,0,0,1-79.77,30.48A125.64,125.64,0,0,0,301.39,154,356.43,356.43,0,0,1,42.64,22.87,125.69,125.69,0,0,0,81.5,190.45a125.56,125.56,0,0,1-56.87-15.76v1.57a125.67,125.67,0,0,0,100.69,123.1,127.17,127.17,0,0,1-33.08,4.4,120.5,120.5,0,0,1-23.63-2.33,125.61,125.61,0,0,0,117.25,87.2A251.89,251.89,0,0,1,29.94,442.29,266.81,266.81,0,0,1,0,440.56,354.88,354.88,0,0,0,192.44,497c231,0,357.19-191.29,357.19-357.19l-.42-16.25A250.71,250.71,0,0,0,612,58.75Z"/></g></g></g></g></g></g></g></g></g></svg>