<svg xmlns="http://www.w3.org/2000/svg" viewBox="0 0 31.04 17"><title>view-black</title><g id="Слой_2" data-name="Слой 2"><g id="Слой_1-2" data-name="Слой 1"><path id="Shape_8_copy_9" data-name="Shape 8 copy 9" d="M15.52,17A19,19,0,0,1,4.66,13,27.61,27.61,0,0,1,.21,9.08a.89.89,0,0,1,0-1.16A27.62,27.62,0,0,1,4.66,4,16.84,16.84,0,0,1,26.38,4a27.67,27.67,0,0,1,4.44,3.95.89.89,0,0,1,0,1.16A27.61,27.61,0,0,1,26.38,13,19,19,0,0,1,15.52,17ZM2.08,8.5a27.73,27.73,0,0,0,3.63,3.11c2.3,1.65,5.88,3.62,9.81,3.62s7.5-2,9.81-3.62A27.79,27.79,0,0,0,29,8.5a27.88,27.88,0,0,0-3.63-3.11C23,3.73,19.45,1.77,15.52,1.77S8,3.73,5.71,5.39A27.88,27.88,0,0,0,2.08,8.5ZM15.52,14a5.48,5.48,0,1,1,3.58-9.6.89.89,0,0,1,.08,1.25A.87.87,0,0,1,18,5.71h0A3.71,3.71,0,1,0,19.2,8.5.88.88,0,1,1,21,8.44s0,0,0,.06A5.47,5.47,0,0,1,15.52,14Zm0-3.71a1.77,1.77,0,1,1,1.75-1.78h0a1.76,1.76,0,0,1-1.76,1.77Z"/></g></g></svg>